<svg width="110" height="110" viewBox="0 0 110 110" fill="none" xmlns="http://www.w3.org/2000/svg">
<circle cx="55" cy="55" r="55" fill="white"/>
<path d="M67.9085 68.954C66.6279 68.954 65.339 68.5437 64.2539 67.6927C61.6679 65.6713 61.208 61.9369 63.2294 59.3509L73.802 45.8178C75.8234 43.2318 79.5578 42.7718 82.1438 44.7933C84.7298 46.8147 85.1897 50.5491 83.1683 53.1351L72.5957 66.6682C71.4225 68.1691 69.6738 68.954 67.9085 68.954Z" fill="#8ED2FF"/>
<path d="M57.333 55.4209C56.0524 55.4209 54.7635 55.0106 53.6785 54.1596C51.0925 52.1382 50.6326 48.4038 52.654 45.8178L63.2266 32.2847C65.248 29.6987 68.9824 29.2388 71.5684 31.2602C74.1544 33.2816 74.6143 37.016 72.5929 39.602L62.0203 53.1351C60.8499 54.636 59.1011 55.4209 57.333 55.4209Z" fill="#8ED2FF"/>
<path d="M35.6812 56.0681C34.4006 56.0681 33.1117 55.6578 32.0266 54.8068C29.4406 52.7854 28.9807 49.051 31.0021 46.465L42.0814 32.2847C44.1029 29.6987 47.8373 29.2388 50.4233 31.2602C53.0093 33.2816 53.4692 37.016 51.4477 39.602L40.3685 53.7823C39.198 55.2832 37.4492 56.0681 35.6812 56.0681Z" fill="#296AEF"/>
<path d="M42.0872 74.9384C40.8066 74.9384 39.5205 74.5281 38.4326 73.6771C35.8466 71.6557 35.3867 67.9213 37.4081 65.3353L52.657 45.8178C54.6784 43.2318 58.4128 42.7718 60.9988 44.7933C63.5848 46.8147 64.0447 50.5491 62.0233 53.1351L46.7745 72.6526C45.6013 74.1535 43.8525 74.9384 42.0872 74.9384Z" fill="#296AEF"/>
<path d="M63.2322 74.9385C61.9516 74.9385 60.6627 74.5281 59.5776 73.6771C56.9916 71.6557 56.5317 67.9213 58.5532 65.3353L63.2294 59.3509C65.2509 56.7649 68.9853 56.305 71.5713 58.3264C74.1573 60.3478 74.6172 64.0823 72.5958 66.6682L67.9195 72.6527C66.7463 74.1536 65.0003 74.9385 63.2322 74.9385Z" fill="#296AEF"/>
<path d="M20.9392 74.9385C19.6586 74.9385 18.3697 74.5281 17.2847 73.6771C14.6987 71.6557 14.2388 67.9213 16.2602 65.3353L20.9365 59.3509C22.9579 56.7649 26.6923 56.305 29.2783 58.3264C31.8643 60.3478 32.3242 64.0823 30.3028 66.6682L25.6265 72.6527C24.4561 74.1536 22.7073 74.9385 20.9392 74.9385Z" fill="#FFA600"/>
<path d="M84.3775 74.9385C83.0968 74.9385 81.8107 74.5281 80.7229 73.6771C78.1369 71.6557 77.677 67.9213 79.6984 65.3353L84.3747 59.3509C86.3961 56.7649 90.1305 56.305 92.7165 58.3264C95.3025 60.3478 95.7597 64.0823 93.741 66.6682L89.0647 72.6527C87.8943 74.1536 86.1455 74.9385 84.3775 74.9385Z" fill="#8ED2FF"/>
</svg>
