<?xml version="1.0" encoding="UTF-8"?>
<svg width="200px" height="200px" viewBox="0 0 200 200" version="1.1" xmlns="http://www.w3.org/2000/svg" xmlns:xlink="http://www.w3.org/1999/xlink">
    <title>底背景logo</title>
    <g id="首页" stroke="none" stroke-width="1" fill="none" fill-rule="evenodd">
        <g id="底背景logo" fill-rule="nonzero">
            <rect id="矩形" fill="#FF7700" x="0" y="0" width="200" height="200"></rect>
            <g id="iPhone-8" transform="translate(15.000000, 40.000000)" fill="#FFFFFF">
                <path d="M161.575604,34.5164732 C163.303685,34.5164732 166.111817,34.733552 170,34.733552 C167.191868,53.6194005 163.087675,67.9465957 157.687421,77.715138 C150.127065,92.4764905 146.238882,99.2059307 138.030496,107.237843 C130.03812,114.835598 117.94155,127.426164 92.2363405,120.479645 C73.0114358,115.486834 69.5552733,95.94975 72.3634053,86.832444 C75.1715375,77.715138 84.4599745,69.249068 101.956798,69.249068 C113.621347,69.249068 127.229987,74.4589572 142.998729,84.6616567 L143.21474,86.6153652 L138.246506,89.6544672 L135.654384,89.871546 C121.397713,79.885925 107.573062,74.676036 94.180432,74.676036 C80.3557815,75.1101932 75.3875478,87.7007587 76.0355783,91.391097 C75.819568,94.6472777 77.5476493,111.14526 97.4205845,115.269756 C111.245235,118.743015 121.397713,115.269756 132.198221,107.020764 C141.918679,100.291324 151.423126,79.6688462 151.855146,78.5834527 C152.287167,77.2809805 151.855146,77.0639017 151.423126,77.4980592 C148.831004,80.3200825 144.29479,80.3200825 141.486658,77.715138 L141.270648,77.4980592 C140.190597,75.7614295 139.974587,73.3735635 140.838628,71.4198552 L142.782719,71.4198552 C145.806862,75.9785082 148.182973,76.846823 149.911055,73.807721 C151.855146,70.5515402 147.966963,67.2953595 146.454892,66.209966 C142.134689,62.0854702 140.190597,56.224345 140.838628,50.3632197 C141.486658,43.6337795 145.806862,37.772654 151.855146,35.3847882 C154.879289,34.5164732 158.335451,34.2993947 161.575604,34.5164732 L161.575604,34.5164732 Z M105.844981,3.04005947 C107.789073,4.99376792 108.653113,7.59871252 108.653113,10.4207358 C109.517154,9.9865784 110.597205,9.76949967 111.461245,9.76949967 C111.893266,9.76949967 112.541296,9.9865784 112.757306,10.4207358 C113.189327,10.8548932 113.405337,11.5061294 113.405337,11.9402868 L113.405337,11.9402868 L113.405337,12.3744443 C112.973317,14.111074 108.653113,15.8477037 108.653113,15.8477037 C108.653113,15.8477037 104.54892,25.8333247 103.252859,28.2211905 C101.740788,31.9115287 91.3722998,44.9362517 83.595934,50.3632197 C75.6035578,55.7901875 69.9872935,58.6122107 65.6670903,54.704794 C61.346887,50.797377 66.9631513,41.8971497 69.1232528,38.2068115 C73.4434562,32.3456862 78.8437103,27.3528757 84.6759848,23.2283801 C96.3405338,14.111074 99.7966963,13.2427591 100.660737,12.8086017 C101.524778,12.3744443 101.308768,8.6841061 101.092757,8.24994867 C100.876747,7.81579122 100.228717,4.7766892 92.4523508,6.29624022 C84.6759848,7.81579122 63.5069885,19.5380419 55.7306225,25.616246 C47.9542567,31.69445 23.7611182,49.4949047 16.6327827,61.4342342 L15.7687421,62.7367065 C9.07242695,74.2418785 3.6721728,85.7470505 11.6645489,91.8252545 C15.5527319,95.0814352 25.7052098,93.5618842 28.5133417,92.6935692 C37.5857688,89.4373885 46.2261753,84.8787355 54.0025413,79.234689 C55.7306225,77.715138 57.674714,76.195587 59.4027955,74.676036 C59.8348158,74.4589572 63.0749683,74.2418785 62.4269378,78.1492952 C61.7789073,82.0567122 58.970775,86.3982865 49.4663278,91.8252545 C39.9618805,97.2522225 23.7611182,104.41582 12.9606099,99.6400882 C2.16010165,94.8643565 0,87.0495227 0,80.75424 C0.648030495,71.2027765 4.10419315,61.8683915 9.9364676,54.2706365 C15.3367217,46.6728815 21.6010165,39.7263625 28.5133417,33.6481585 C31.7534942,30.8261352 36.2897077,27.3528757 41.905972,23.4454588 C59.8348158,11.5061294 74.0914868,4.34253177 84.891995,1.73758717 C101.092757,-1.95275101 103.684879,1.08635102 105.844981,3.04005947 Z M148.182973,43.199622 C145.374841,45.8045665 144.5108,49.9290622 146.454892,53.4023217 C148.182973,56.0072662 150.127065,58.3951322 152.503176,60.5659192 C154.447268,62.302549 155.743329,64.690415 155.743329,67.0782807 C157.2554,63.6050212 158.335451,59.9146832 158.983481,56.224345 C159.415502,53.185243 160.495553,47.9753537 162.007624,41.0288347 C155.527319,39.9434412 150.775095,40.5946775 148.182973,43.199622 Z M97.6365947,18.8868058 L97.6365947,18.8868058 C90.076239,24.3137737 83.1639135,30.8261352 77.115629,38.2068115 C67.1791612,50.146141 70.4193137,48.62659 71.931385,48.1924325 C73.4434562,47.758275 83.1639135,38.4238902 89.2121982,31.2602925 C95.476493,23.4454588 98.068615,20.8405142 98.5006352,19.7551206 C98.9326557,18.669727 97.6365947,18.8868058 97.6365947,18.8868058 Z" id="形状结合"></path>
            </g>
        </g>
    </g>
</svg>