<svg width="159" height="72" viewBox="0 0 159 72" fill="none" xmlns="http://www.w3.org/2000/svg">
<path d="M55.2673 43.7258C55.2673 58.8701 42.9904 71.1469 27.8462 71.1469C12.7019 71.1469 0.425049 58.8701 0.425049 43.7258C0.425049 28.5815 12.7019 16.3047 27.8462 16.3047C42.9904 16.3047 55.2673 28.5815 55.2673 43.7258Z" fill="#F6DE00"/>
<mask id="mask0_8370_20495" style="mask-type:alpha" maskUnits="userSpaceOnUse" x="0" y="16" width="56" height="56">
<circle cx="27.8462" cy="43.7258" r="27.4211" fill="#D9D9D9"/>
</mask>
<g mask="url(#mask0_8370_20495)">
<path d="M27.8464 40.5371C30.2623 40.5373 35.7779 43.8502 39.8318 48.959C40.3271 48.6051 41.087 48.4905 42.1394 48.7725C45.4691 49.6646 50.6097 55.891 51.6755 58.834C52.3767 60.7704 51.8965 62.9654 49.8796 63.3467C47.6408 63.7697 46.2296 61.7465 44.5242 59.4199C44.598 60.0372 44.6394 60.6623 44.6394 61.2939C44.6393 72.7571 37.1207 75.8232 27.8464 75.8232C18.5721 75.8232 11.0536 72.7572 11.0535 61.2939C11.0535 49.8304 23.8 40.5371 27.8464 40.5371Z" fill="#F7DE00"/>
<path d="M27.8464 40.5371L27.8465 39.8994H27.8464V40.5371ZM39.8318 48.959L39.3322 49.3554C39.5434 49.6215 39.9261 49.6753 40.2025 49.4779L39.8318 48.959ZM42.1394 48.7725L42.3045 48.1565L42.3044 48.1565L42.1394 48.7725ZM51.6755 58.834L52.2751 58.6169L52.2751 58.6168L51.6755 58.834ZM49.8796 63.3467L49.998 63.9733L49.9981 63.9733L49.8796 63.3467ZM44.5242 59.4199L45.0385 59.0429C44.8671 58.8092 44.5597 58.7204 44.2901 58.8267C44.0205 58.9331 43.8566 59.2079 43.891 59.4956L44.5242 59.4199ZM44.6394 61.2939L45.2771 61.294V61.2939H44.6394ZM27.8464 75.8232V76.4609H27.8464L27.8464 75.8232ZM11.0535 61.2939H10.4158V61.294L11.0535 61.2939ZM27.8464 40.5371L27.8464 41.1748C28.3256 41.1748 29.0312 41.3449 29.9192 41.7217C30.7948 42.0932 31.8019 42.646 32.8697 43.362C35.0058 44.7943 37.3486 46.8555 39.3322 49.3554L39.8318 48.959L40.3313 48.5626C38.2611 45.9536 35.8192 43.804 33.58 42.3027C32.4602 41.5518 31.3821 40.957 30.4174 40.5476C29.465 40.1435 28.5752 39.8995 27.8465 39.8994L27.8464 40.5371ZM39.8318 48.959L40.2025 49.4779C40.4858 49.2754 41.0258 49.1343 41.9744 49.3884L42.1394 48.7725L42.3044 48.1565C41.1481 47.8467 40.1683 47.9348 39.4611 48.4401L39.8318 48.959ZM42.1394 48.7725L41.9744 49.3884C42.6854 49.579 43.5513 50.0752 44.4917 50.8097C45.4221 51.5364 46.3832 52.4629 47.2827 53.461C49.0978 55.4755 50.5848 57.6949 51.0759 59.0511L51.6755 58.834L52.2751 58.6168C51.7005 57.03 50.0842 54.6648 48.2301 52.6073C47.295 51.5694 46.28 50.5881 45.2768 49.8045C44.2835 49.0287 43.2582 48.412 42.3045 48.1565L42.1394 48.7725ZM51.6755 58.834L51.0759 59.0511C51.3887 59.9147 51.4212 60.7959 51.193 61.4686C50.9746 62.1121 50.5208 62.5765 49.7612 62.7201L49.8796 63.3467L49.9981 63.9733C51.2553 63.7356 52.0501 62.9119 52.4008 61.8784C52.7415 60.8742 52.6636 59.6897 52.2751 58.6169L51.6755 58.834ZM49.8796 63.3467L49.7612 62.7201C48.8958 62.8836 48.1752 62.5969 47.423 61.9355C46.6417 61.2485 45.9086 60.23 45.0385 59.0429L44.5242 59.4199L44.0098 59.7969C44.8451 60.9364 45.6703 62.0927 46.5808 62.8933C47.5202 63.7193 48.6247 64.2328 49.998 63.9733L49.8796 63.3467ZM44.5242 59.4199L43.891 59.4956C43.9621 60.0905 44.0017 60.6902 44.0017 61.2939H44.6394H45.2771C45.2771 60.6344 45.2339 59.9839 45.1574 59.3442L44.5242 59.4199ZM44.6394 61.2939L44.0017 61.2939C44.0016 66.8726 42.1823 70.2885 39.3468 72.3407C36.4701 74.4227 32.4352 75.1855 27.8464 75.1855L27.8464 75.8232L27.8464 76.4609C32.5319 76.4609 36.8934 75.6907 40.0946 73.3739C43.337 71.0272 45.277 67.1785 45.2771 61.294L44.6394 61.2939ZM27.8464 75.8232V75.1855C23.2576 75.1855 19.2228 74.4227 16.346 72.3407C13.5106 70.2886 11.6912 66.8726 11.6912 61.2939L11.0535 61.2939L10.4158 61.294C10.4158 67.1785 12.3558 71.0272 15.5982 73.3739C18.7994 75.6907 23.1609 76.4609 27.8464 76.4609V75.8232ZM11.0535 61.2939H11.6912C11.6912 55.7961 14.7552 50.7587 18.3873 47.0638C20.197 45.2227 22.1269 43.7373 23.8417 42.7162C25.5872 41.6769 27.0165 41.1748 27.8464 41.1748V40.5371V39.8994C26.6531 39.8994 24.9717 40.559 23.1892 41.6204C21.376 42.7001 19.3605 44.2544 17.4778 46.1697C13.725 49.9873 10.4158 55.3283 10.4158 61.2939H11.0535Z" fill="#1F1F1F"/>
<ellipse cx="27.8463" cy="67.9581" rx="10.8409" ry="5.73931" fill="white" fill-opacity="0.4"/>
</g>
<path d="M1.80533 35.1117C0.909748 37.8206 0.425049 40.7165 0.425049 43.7257C0.425049 58.8699 12.7019 71.1468 27.8462 71.1468C42.9904 71.1468 55.2673 58.8699 55.2673 43.7257C55.2673 40.7396 54.79 37.8649 53.9075 35.1739C53.5296 36.9581 52.8777 39.1124 51.7454 41.301C51.8253 42.0983 51.8662 42.9072 51.8662 43.7257C51.8662 56.9916 41.1121 67.7457 27.8462 67.7457C14.5803 67.7457 3.82612 56.9916 3.82612 43.7257C3.82612 42.8219 3.87603 41.9298 3.97325 41.052C2.90975 39.0844 2.2207 37.055 1.80533 35.1117Z" fill="#CA1800"/>
<path d="M51.7454 41.301C52.8777 39.1124 53.5296 36.9581 53.9075 35.1739L53.5668 34.1602L53.1416 36.0733L52.0788 37.9864L51.7454 39.8995L51.6537 40.9623L51.7454 41.301Z" fill="#CA1800"/>
<path d="M1.80533 35.1117C2.2207 37.055 2.90975 39.0844 3.97325 41.052L4.25125 40.112L3.61355 39.2618L3.40099 37.7738L2.97585 36.2858L2.12558 34.1602L1.80533 35.1117Z" fill="#CA1800"/>
<path d="M0.714757 48.611C0.451235 46.5753 2.38912 45.4379 4.44768 45.5035C7.57615 45.6033 14.6768 49.0579 17.2276 50.7584C19.3533 52.1755 17.1029 54.9687 15.279 55.0369C13.4551 55.105 10.8415 54.9873 7.44955 53.7344C4.05762 52.4814 1.06597 51.3241 0.714757 48.611Z" fill="#F7DE00" stroke="#1F1F1F" stroke-width="1.2754" stroke-linejoin="round"/>
<path d="M22.7446 54.5666C23.5949 50.953 19.3436 46.7016 16.5802 49.6776C15.6133 50.7188 14.7095 51.9591 14.0294 53.2912C13.1546 55.0048 12.6079 56.7983 12.3289 57.7551C12.3997 59.0305 12.7965 61.7939 13.8168 62.6441C15.0922 63.707 21.8944 58.1802 22.7446 54.5666Z" fill="#F6DE00"/>
<path d="M15.0922 55.2048C14.3837 56.055 12.1163 57.9681 12.754 56.2676C13.2248 55.0121 12.754 54.1419 11.4786 53.9294C11.1273 53.8129 10.8052 53.7168 10.4158 53.7168L12.9666 53.0791L14.8797 53.9294L15.0922 55.2048Z" fill="#F6DE00"/>
<path fill-rule="evenodd" clip-rule="evenodd" d="M25.4762 8.35276C25.0285 7.53134 24.6577 6.48079 24.6577 5.30998C24.6577 3.09342 27.0088 1.51309 28.1843 1C27.8776 1.87226 27.4483 3.95541 28.1843 5.30998C28.7655 6.3798 29.5304 7.32673 30.9044 8.26724C52.3683 9.24463 53.7736 27.8785 53.5667 31.3971C53.3541 35.0107 51.441 52.2287 29.1215 52.2287C6.80196 52.2287 2.12549 38.4118 2.12549 30.1217C2.12549 22.8896 5.54293 9.7719 25.4762 8.35276Z" fill="#F7DE00"/>
<path d="M25.4762 8.35276L25.5215 8.98885C25.738 8.97345 25.9317 8.84905 26.0358 8.65868C26.1399 8.4683 26.14 8.23806 26.0362 8.04755L25.4762 8.35276ZM28.1843 1L28.7859 1.2115C28.87 0.972088 28.8042 0.705552 28.6183 0.532816C28.4324 0.360081 28.1617 0.314027 27.9292 0.415549L28.1843 1ZM28.1843 5.30998L28.7446 5.00553V5.00553L28.1843 5.30998ZM30.9044 8.26724L30.5442 8.79346C30.6421 8.8605 30.7568 8.89888 30.8754 8.90428L30.9044 8.26724ZM53.5667 31.3971L52.9301 31.3597L53.5667 31.3971ZM24.6577 5.30998H24.02C24.02 6.61467 24.4324 7.77017 24.9163 8.65797L25.4762 8.35276L26.0362 8.04755C25.6246 7.29251 25.2954 6.34691 25.2954 5.30998H24.6577ZM28.1843 1L27.9292 0.415549C27.2805 0.698681 26.3287 1.26407 25.5288 2.06575C24.7315 2.86472 24.02 3.96659 24.02 5.30998H24.6577H25.2954C25.2954 4.4368 25.7594 3.64023 26.4316 2.96662C27.101 2.29573 27.9125 1.81441 28.4394 1.58445L28.1843 1ZM28.1843 5.30998L28.7446 5.00553C28.4603 4.48229 28.3793 3.76465 28.4295 3.01685C28.479 2.28053 28.6498 1.59841 28.7859 1.2115L28.1843 1L27.5827 0.788497C27.412 1.27385 27.2149 2.06943 27.157 2.9314C27.0999 3.78188 27.1722 4.7831 27.6239 5.61442L28.1843 5.30998ZM30.9044 8.26724L31.2646 7.74101C29.9778 6.86018 29.2799 5.99082 28.7446 5.00553L28.1843 5.30998L27.6239 5.61442C28.2511 6.76879 29.083 7.79328 30.5442 8.79346L30.9044 8.26724ZM53.5667 31.3971L54.2033 31.4346C54.3118 29.5891 54.0019 23.9181 50.9146 18.5608C47.8002 13.1564 41.8882 8.12904 30.9334 7.6302L30.9044 8.26724L30.8754 8.90428C41.3845 9.38283 46.9071 14.1611 49.8096 19.1976C52.7392 24.2813 53.0285 29.6865 52.9301 31.3597L53.5667 31.3971ZM29.1215 52.2287V52.8664C40.4744 52.8664 46.7356 48.4721 50.1584 43.5311C53.5525 38.6315 54.0945 33.2831 54.2033 31.4346L53.5667 31.3971L52.9301 31.3597C52.8262 33.1248 52.3054 38.1921 49.11 42.8049C45.9432 47.3763 40.0881 51.591 29.1215 51.591V52.2287ZM2.12549 30.1217H1.48779C1.48779 34.3718 2.68461 40.0659 6.77533 44.7057C10.8818 49.3634 17.8228 52.8664 29.1215 52.8664V52.2287V51.591C18.1007 51.591 11.5436 48.1855 7.732 43.8623C3.9046 39.5211 2.76319 34.1617 2.76319 30.1217H2.12549ZM25.4762 8.35276L25.431 7.71667C15.3162 8.43678 9.2961 12.1387 5.81994 16.6692C2.36056 21.1778 1.48779 26.4193 1.48779 30.1217H2.12549H2.76319C2.76319 26.592 3.59914 21.6587 6.83181 17.4456C10.0477 13.2543 15.703 9.68788 25.5215 8.98885L25.4762 8.35276Z" fill="#1F1F1F"/>
<path d="M27.8464 34.1602C23.8883 34.1602 23.2652 37.5309 20.4065 38.4115C19.294 38.7542 18.2809 37.1361 16.7929 37.1361L16.7862 37.1365C15.8098 37.2032 14.0295 37.3247 14.0295 40.112C14.0295 42.9058 19.7102 45.6388 27.8464 45.6388C35.9826 45.6388 41.6633 42.9058 41.6633 40.112C41.6633 37.3247 39.883 37.2032 38.9066 37.1365L38.8999 37.1361C37.4119 37.1361 36.3988 38.7542 35.2863 38.4115C32.4276 37.5309 31.8045 34.1602 27.8464 34.1602Z" fill="#F67601" stroke="#1F1F1F" stroke-width="0.850267"/>
<path d="M27.9743 39.6865C25.3608 39.6865 23.4006 41.0936 21.8325 41.6348C23.4006 42.176 25.3608 43.1579 27.9743 43.1579C30.5878 43.1579 32.292 42.176 33.8601 41.6348C32.292 41.0936 30.5878 39.6865 27.9743 39.6865Z" fill="#F60101" stroke="#1F1F1F" stroke-width="0.425134" stroke-linejoin="round"/>
<path d="M14.4546 41.1745C17.6431 42.6625 20.578 42.0677 21.8325 41.6348C23.4006 41.0936 25.3608 39.6865 27.9743 39.6865C30.5878 39.6865 32.5479 41.0936 34.116 41.6348C35.3705 42.0677 38.3054 42.6625 41.4939 41.1745" stroke="#1F1F1F" stroke-width="0.425134"/>
<rect x="14.0295" y="27.3584" width="3.40107" height="4.25134" rx="1.70053" fill="#1F1F1F"/>
<rect x="38.262" y="27.3584" width="3.40107" height="4.25134" rx="1.70053" fill="#1F1F1F"/>
<path fill-rule="evenodd" clip-rule="evenodd" d="M69.5212 14.7626C70.4447 14.7626 71.1932 15.5112 71.1932 16.4346V21.8444L73.7301 21.6533C74.6509 21.584 75.4536 22.2742 75.5229 23.195C75.5923 24.1158 74.902 24.9185 73.9812 24.9879L71.1932 25.1979V29.3925L73.2664 28.6117C74.1305 28.2863 75.0949 28.723 75.4204 29.5872C75.7458 30.4514 75.3091 31.4157 74.4449 31.7412L71.1932 32.9658V43.6644C71.1932 44.1614 70.9721 44.6327 70.5899 44.9503C70.2077 45.268 69.704 45.3991 69.2154 45.3082L65.1218 44.5464C64.2139 44.3775 63.6149 43.5046 63.7839 42.5968C63.9528 41.6889 64.8257 41.0899 65.7335 41.2589L67.8492 41.6526V34.2251L64.3313 35.55C63.4671 35.8755 62.5028 35.4387 62.1773 34.5746C61.8519 33.7104 62.2886 32.746 63.1528 32.4206L67.8492 30.6519V25.4497L63.8676 25.7496C62.9468 25.819 62.1441 25.1288 62.0748 24.2079C62.0054 23.2871 62.6956 22.4844 63.6165 22.4151L67.8492 22.0963V16.4346C67.8492 15.5112 68.5978 14.7626 69.5212 14.7626ZM75.0771 20.5275C75.0771 19.604 75.8257 18.8555 76.7491 18.8555H92.8827C93.8061 18.8555 94.5547 19.604 94.5547 20.5275C94.5547 21.4509 93.8061 22.1995 92.8827 22.1995H87.2103V43.6644C87.2103 44.1813 86.9713 44.6691 86.5628 44.9858C86.1544 45.3025 85.6224 45.4125 85.1218 45.2837L80.1854 44.0141C79.2911 43.7841 78.7526 42.8727 78.9826 41.9783C79.2126 41.084 80.1241 40.5455 81.0184 40.7755L83.8663 41.508V22.1995H76.7491C75.8257 22.1995 75.0771 21.4509 75.0771 20.5275Z" fill="white"/>
<path fill-rule="evenodd" clip-rule="evenodd" d="M109.438 14.4034C110.296 14.0619 111.268 14.4807 111.609 15.3386L112.887 18.5482H124.412C124.929 18.5482 125.418 18.7878 125.734 19.197C126.051 19.6062 126.16 20.139 126.03 20.6399L124.986 24.6663C124.755 25.5602 123.842 26.0969 122.948 25.8651C122.054 25.6334 121.518 24.7208 121.749 23.827L122.251 21.8922H100.765V24.0098C100.765 24.9332 100.016 25.6818 99.093 25.6818C98.1696 25.6818 97.421 24.9332 97.421 24.0098V20.2202C97.421 19.2968 98.1696 18.5482 99.093 18.5482H109.288L108.502 16.5751C108.161 15.7171 108.58 14.7448 109.438 14.4034ZM107.763 26.5794C106.607 26.6048 105.495 26.6292 104.574 26.6292C103.651 26.6292 102.902 25.8806 102.902 24.9572C102.902 24.0338 103.651 23.2852 104.574 23.2852C105.458 23.2852 106.539 23.2615 107.717 23.2356L107.749 23.2349C108.929 23.209 110.197 23.1814 111.405 23.1763C112.609 23.1713 113.785 23.1883 114.781 23.2551C115.699 23.3167 116.709 23.4315 117.42 23.7325C117.902 23.9362 118.566 24.3884 118.759 25.2643C118.932 26.0485 118.607 26.6881 118.402 27.0104C117.984 27.6664 117.257 28.2524 116.647 28.6937C115.793 29.3121 114.744 29.9402 113.836 30.4542C113.958 30.8242 114.066 31.1997 114.162 31.579H123.368C124.291 31.579 125.04 32.3276 125.04 33.251C125.04 34.1744 124.291 34.923 123.368 34.923H114.7C114.773 35.8418 114.789 36.7563 114.76 37.6456C114.668 40.4989 114.105 43.2413 113.305 45.2408C112.976 46.0636 112.062 46.4868 111.221 46.2053L107.698 45.025C106.822 44.7318 106.35 43.7842 106.643 42.9086C106.937 42.033 107.884 41.5609 108.76 41.8542L110.695 42.5023C111.082 41.0862 111.359 39.358 111.418 37.5371C111.447 36.662 111.424 35.7834 111.344 34.923H100.92C99.9968 34.923 99.2482 34.1744 99.2482 33.251C99.2482 32.3276 99.9968 31.579 100.92 31.579H110.686C110.552 31.1644 110.4 30.7636 110.228 30.3799C109.868 29.5809 110.187 28.64 110.957 28.2234C111.749 27.7953 112.867 27.1801 113.845 26.5542C113.119 26.5253 112.296 26.5166 111.419 26.5203C110.246 26.5253 109.008 26.5521 107.822 26.5781L107.763 26.5794Z" fill="white"/>
<path fill-rule="evenodd" clip-rule="evenodd" d="M129.421 17.6607C129.736 17.335 130.169 17.1512 130.622 17.1512H141.132C141.605 17.1512 142.057 17.3518 142.374 17.7033C142.691 18.0548 142.844 18.5243 142.795 18.9951L141.394 32.5497C141.31 33.3646 140.647 33.9984 139.83 34.0469L137.549 34.1818V44.1421C137.549 45.0656 136.801 45.8141 135.877 45.8141C134.954 45.8141 134.205 45.0656 134.205 44.1421V34.3798L131.188 34.5583C130.738 34.585 130.296 34.4287 129.963 34.1248C129.63 33.821 129.433 33.3955 129.418 32.9448L128.951 18.8787C128.936 18.4258 129.106 17.9863 129.421 17.6607ZM137.549 30.832L138.214 30.7926L138.572 27.3227L137.549 27.3501V30.832ZM134.205 27.4394V31.0299L132.704 31.1188L132.583 27.4827L134.205 27.4394ZM137.549 24.0048L138.919 23.9683L139.278 20.4952H137.549V24.0048ZM134.205 20.4952V24.0942L132.472 24.1405L132.351 20.4952H134.205Z" fill="white"/>
<path fill-rule="evenodd" clip-rule="evenodd" d="M147.692 13.5219C148.509 13.9521 148.822 14.9632 148.392 15.7803L147.397 17.6709H155.039C155.539 17.6709 156.012 17.8941 156.33 18.2794C156.647 18.6646 156.776 19.1717 156.681 19.6618L155.243 27.0629C155.595 27.1503 155.932 27.2656 156.255 27.4166C157.132 27.8262 157.757 28.4257 158.327 29.0737C158.836 29.6527 158.936 30.4077 158.973 30.8069C159.018 31.3091 159.003 31.8819 158.957 32.4649C158.865 33.6403 158.633 35.0901 158.347 36.5816C157.805 39.4136 157.034 42.5785 156.525 44.6687C156.496 44.7878 156.467 44.9034 156.44 45.0153C156.325 45.4877 156.01 45.8867 155.577 46.1082C155.145 46.3298 154.637 46.3519 154.186 46.1689L150.631 44.7243C149.775 44.3767 149.364 43.4014 149.711 42.5458C150.059 41.6903 151.034 41.2786 151.89 41.6262L153.648 42.3408C154.111 40.4188 154.655 38.0822 155.063 35.9526C155.341 34.4996 155.546 33.1935 155.623 32.2047C155.662 31.7057 155.664 31.3443 155.642 31.1106C155.642 31.1027 155.641 31.0951 155.64 31.0877C155.296 30.7191 155.069 30.5535 154.84 30.4465C154.562 30.3165 154.124 30.2018 153.228 30.1642H145.135C144.212 30.1642 143.463 29.4156 143.463 28.4922V21.9914C143.463 21.5518 143.633 21.1518 143.91 20.8534C143.618 20.7149 143.368 20.4925 143.196 20.207C142.893 19.7056 142.875 19.0823 143.148 18.564L145.433 14.2225C145.863 13.4054 146.875 13.0918 147.692 13.5219ZM146.492 21.0149C146.69 21.2897 146.807 21.6269 146.807 21.9914V22.3377C146.872 22.0564 147.01 21.788 147.223 21.5633C147.858 20.8932 148.917 20.865 149.587 21.5003L151.872 23.6672C152.109 23.8916 152.266 24.1687 152.341 24.4629L153.011 21.0149H146.492ZM152.067 25.8742C152.027 25.9284 151.983 25.9808 151.935 26.031C151.3 26.7011 150.242 26.7293 149.572 26.094L147.286 23.9271C147.038 23.692 146.878 23.399 146.807 23.0893V26.8201H151.883L152.067 25.8742ZM155.616 30.94C155.616 30.94 155.619 30.947 155.623 30.964C155.618 30.949 155.616 30.94 155.616 30.94ZM140.415 35.7152C140.415 34.7918 141.164 34.0432 142.087 34.0432H152.5C153.423 34.0432 154.172 34.7918 154.172 35.7152C154.172 36.6386 153.423 37.3872 152.5 37.3872H142.087C141.164 37.3872 140.415 36.6386 140.415 35.7152Z" fill="white"/>
<path d="M71.0943 62.3952C70.8858 62.3952 70.697 62.3362 70.5277 62.2181C70.3583 62.1 70.2411 61.8769 70.176 61.5489C69.6159 61.9557 69.0298 62.2181 68.4176 62.3362C67.571 62.4937 66.796 62.4477 66.0926 62.1984C65.3892 61.9491 64.7966 61.5358 64.3147 60.9584C63.442 59.9349 63.0122 58.6359 63.0252 57.0613C63.0382 55.6441 63.4941 54.4238 64.3928 53.4003C65.4739 52.18 66.8937 51.7273 68.652 52.0422C69.2512 52.1472 69.7071 52.285 70.0197 52.4556L69.9806 49.3064C69.9806 49.0308 70.0718 48.7946 70.2541 48.5978C70.4495 48.401 70.6774 48.3026 70.9379 48.3026C71.2115 48.3026 71.4459 48.401 71.6413 48.5978C71.8367 48.7815 71.9344 49.0046 71.9344 49.267C72.0255 55.2505 72.0711 59.2985 72.0711 61.4111C72.0711 61.6867 71.9734 61.9229 71.7781 62.1197C71.5957 62.3034 71.3678 62.3952 71.0943 62.3952ZM68.0659 60.4073C68.3134 60.3548 68.5739 60.263 68.8474 60.1318C69.1209 60.0005 69.3098 59.8956 69.414 59.8168C69.5312 59.725 69.6159 59.6462 69.668 59.5806C69.7331 59.515 69.8048 59.4429 69.8829 59.3641C69.9611 59.2723 70.0327 59.1345 70.0978 58.9508C70.0978 57.2844 70.0848 55.9591 70.0588 54.9749C70.0457 54.9749 70.0327 54.9684 70.0197 54.9553C69.4726 54.4829 69.1991 54.2401 69.1991 54.227C69.0558 54.1352 68.7562 54.0499 68.3004 53.9711C67.2584 53.7874 66.4443 54.0367 65.8582 54.7191C65.272 55.362 64.979 56.1428 64.979 57.0613C64.9659 58.1504 65.2395 59.0295 65.7995 59.6987C66.3596 60.3548 67.1151 60.591 68.0659 60.4073Z" fill="white"/>
<path d="M80.0472 62.0803C79.5783 62.264 79.0443 62.369 78.4451 62.3952C77.859 62.4215 77.312 62.3559 76.804 62.1984C76.296 62.0278 75.8466 61.772 75.4559 61.4308C74.7786 60.8666 74.3422 60.1646 74.1469 59.3248C73.9515 58.485 73.945 57.7305 74.1273 57.0613C74.3097 56.3921 74.5832 55.7426 74.9479 55.1127C75.3256 54.4698 75.7294 53.9318 76.1592 53.4988C76.6021 53.0526 77.1101 52.6786 77.6832 52.3768C78.2563 52.0751 78.8554 51.9307 79.4806 51.9438C80.1059 51.9438 80.7636 52.1144 81.454 52.4556C81.5582 52.5081 81.6689 52.5868 81.7861 52.6918C81.9163 52.7967 82.0271 52.8886 82.1182 52.9673L82.3722 53.2232C82.4504 53.3019 82.4895 53.3479 82.4895 53.361C82.6979 53.5447 82.8086 53.7809 82.8216 54.0695C82.9909 54.8568 83.1016 55.6835 83.1537 56.5495C83.2058 57.4156 83.2189 58.2291 83.1928 58.9902C83.1798 59.7512 83.1928 60.5582 83.2319 61.4111C83.2449 61.6735 83.1602 61.9032 82.9779 62.1C82.7955 62.2968 82.5676 62.4018 82.2941 62.4149C82.0205 62.428 81.7861 62.3428 81.5907 62.159C81.3953 61.9753 81.2911 61.7523 81.2781 61.4898V61.1946C80.8874 61.6014 80.4771 61.8966 80.0472 62.0803ZM79.168 60.3089C79.3634 60.2564 79.5197 60.2039 79.6369 60.1514C79.7542 60.0989 79.8975 60.0202 80.0668 59.9152C80.2491 59.8103 80.438 59.6791 80.6334 59.5216C80.8287 59.3641 81.0046 59.1673 81.1609 58.9311C81.1869 58.9049 81.2195 58.8786 81.2586 58.8524C81.2586 57.081 81.1479 55.6573 80.9264 54.5813C80.8874 54.5288 80.8418 54.4829 80.7897 54.4435C80.7506 54.391 80.718 54.3517 80.692 54.3254C80.679 54.2992 80.6529 54.2795 80.6138 54.2664C80.5878 54.2401 80.5552 54.2139 80.5161 54.1876C79.8909 53.8465 79.2332 53.8399 78.5428 54.168C77.8525 54.4829 77.2468 55.0799 76.7258 55.9591C76.2048 56.8513 75.9443 57.6321 75.9443 58.3013C75.9574 58.9574 76.2113 59.5019 76.7063 59.9349C77.0059 60.1842 77.3771 60.3417 77.8199 60.4073C78.2628 60.4729 78.7122 60.4401 79.168 60.3089Z" fill="white"/>
<path d="M89.0034 62.3952C88.0005 62.4084 87.206 62.3952 86.6198 62.3559C86.2421 62.3296 85.936 62.2903 85.7016 62.2378C85.5322 62.1984 85.3825 62.1525 85.2522 62.1C84.9656 61.9557 84.7638 61.7457 84.6465 61.4702C84.5684 61.2471 84.5684 61.0175 84.6465 60.7813C84.6726 60.7025 84.7051 60.6369 84.7442 60.5844C84.7703 60.532 84.8093 60.4729 84.8614 60.4073L85.0764 60.1318L85.682 59.5019L86.5808 58.5965C87.6488 57.4812 88.541 56.5167 89.2574 55.7032C89.8175 54.9946 90.2148 54.4041 90.4492 53.9318C89.9543 53.9186 89.4919 53.9121 89.062 53.9121C87.3427 53.9514 86.2421 53.9449 85.7602 53.8924C85.4997 53.853 85.2848 53.7284 85.1154 53.5184C84.9461 53.3085 84.8745 53.0723 84.9005 52.8099C84.9396 52.5343 85.0633 52.3112 85.2717 52.1407C85.4801 51.9701 85.7211 51.8979 85.9946 51.9242C86.4114 51.9766 87.1539 51.9963 88.2219 51.9832C89.303 51.957 90.1496 51.9504 90.7618 51.9635H91.6019C91.628 51.9766 91.654 51.9832 91.6801 51.9832L91.7973 52.0226C91.9406 52.0619 92.0643 52.1341 92.1685 52.2391C92.5202 52.5802 92.6635 53.0329 92.5984 53.5972C92.5593 53.9252 92.4421 54.2992 92.2467 54.7191C91.9601 55.3227 91.4782 55.9919 90.8009 56.7267C90.0454 57.7239 89.1076 58.8065 87.9875 59.9743L87.5381 60.427C87.9158 60.4401 88.3978 60.4401 88.9839 60.427C89.6612 60.4139 90.4557 60.3876 91.3675 60.3483C92.3053 60.3089 92.8263 60.2892 92.9305 60.2892C93.204 60.2892 93.432 60.3876 93.6143 60.5844C93.8097 60.7682 93.9074 60.9978 93.9074 61.2733C93.9074 61.5489 93.8097 61.7851 93.6143 61.9819C93.432 62.1656 93.204 62.2575 92.9305 62.2575C92.8263 62.2575 92.3053 62.2771 91.3675 62.3165C90.4427 62.3559 89.6547 62.3821 89.0034 62.3952Z" fill="white"/>
<path d="M95.0316 61.4505C95.0055 60.4664 95.0055 58.9574 95.0316 56.9235C95.0706 54.8896 95.0902 53.5578 95.0902 52.928C95.0902 52.6524 95.1814 52.4228 95.3637 52.2391C95.5591 52.0422 95.7935 51.9438 96.0671 51.9438C96.3406 51.9438 96.5685 52.0422 96.7509 52.2391C96.9463 52.4228 97.044 52.6524 97.044 52.928C97.044 53.5578 97.0244 54.8831 96.9853 56.9038C96.9593 58.9246 96.9593 60.427 96.9853 61.4111C96.9853 61.6867 96.8942 61.9229 96.7118 62.1197C96.5295 62.3165 96.3015 62.4149 96.028 62.4149C95.7545 62.4149 95.52 62.3231 95.3246 62.1394C95.1293 61.9557 95.0316 61.726 95.0316 61.4505ZM96.8486 48.5388C97.07 48.7618 97.1807 49.0374 97.1807 49.3654C97.1807 49.6935 97.07 49.969 96.8486 50.1921C96.6271 50.4152 96.3536 50.5267 96.028 50.5267C95.7024 50.5267 95.4288 50.4152 95.2074 50.1921C94.986 49.969 94.8753 49.6935 94.8753 49.3654C94.8753 49.0374 94.986 48.7618 95.2074 48.5388C95.4288 48.3157 95.7024 48.2042 96.028 48.2042C96.3666 48.191 96.6402 48.3026 96.8486 48.5388Z" fill="white"/>
<path d="M99.3567 66.3514C99.0832 66.3777 98.8422 66.2989 98.6338 66.1152C98.4254 65.9446 98.3082 65.7216 98.2822 65.446C98.2561 65.1836 98.3277 64.9474 98.4971 64.7375C98.6794 64.5275 98.9008 64.4094 99.1613 64.3832C99.2916 64.37 99.4479 64.3569 99.6302 64.3438C99.8126 64.3307 99.9298 64.3176 99.9819 64.3044C100.047 64.3044 100.125 64.2913 100.216 64.2651C100.308 64.252 100.379 64.2257 100.431 64.1863L100.627 64.0682C100.939 63.9108 101.219 63.4712 101.467 62.7495C101.545 62.5265 101.623 62.369 101.701 62.2771C101.61 62.1722 101.538 62.0475 101.486 61.9032C101.252 60.8928 100.77 59.3969 100.041 57.4156C99.3893 55.6704 98.9074 54.2729 98.5948 53.2232C98.5166 52.9608 98.5427 52.7115 98.6729 52.4753C98.8032 52.2391 98.9985 52.0816 99.259 52.0029C99.5195 51.9242 99.767 51.9504 100.001 52.0816C100.236 52.2128 100.392 52.4097 100.47 52.6721C100.718 53.5119 101.187 54.8634 101.877 56.7267L102.62 58.7737C103.531 55.9656 104.365 53.8596 105.12 52.4556C105.251 52.2194 105.446 52.0619 105.706 51.9832C105.967 51.9045 106.214 51.9307 106.449 52.0619C106.683 52.1931 106.84 52.39 106.918 52.6524C106.996 52.9148 106.97 53.1641 106.84 53.4003C106.501 54.0302 106.149 54.7978 105.785 55.7032C105.42 56.6086 105.133 57.3696 104.925 57.9864C104.717 58.6031 104.443 59.4625 104.104 60.5648C104.026 60.8272 103.974 61.0109 103.948 61.1159C103.883 61.2865 103.792 61.6276 103.675 62.1394C103.531 62.6249 103.414 63.0185 103.323 63.3203C102.958 64.3438 102.463 65.1049 101.838 65.6035C101.656 65.7478 101.473 65.8659 101.291 65.9578C101.109 66.0627 100.913 66.1349 100.705 66.1743C100.509 66.2268 100.353 66.2596 100.236 66.2727C100.119 66.2989 99.9494 66.3121 99.7279 66.3121C99.5195 66.3252 99.3958 66.3383 99.3567 66.3514Z" fill="white"/>
<path d="M113.322 62.0803C112.853 62.264 112.319 62.369 111.72 62.3952C111.134 62.4215 110.587 62.3559 110.079 62.1984C109.571 62.0278 109.122 61.772 108.731 61.4308C108.054 60.8666 107.617 60.1646 107.422 59.3248C107.227 58.485 107.22 57.7305 107.402 57.0613C107.585 56.3921 107.858 55.7426 108.223 55.1127C108.601 54.4698 109.005 53.9318 109.434 53.4988C109.877 53.0526 110.385 52.6786 110.958 52.3768C111.531 52.0751 112.131 51.9307 112.756 51.9438C113.381 51.9438 114.039 52.1144 114.729 52.4556C114.833 52.5081 114.944 52.5868 115.061 52.6918C115.191 52.7967 115.302 52.8886 115.393 52.9673L115.647 53.2232C115.725 53.3019 115.765 53.3479 115.765 53.361C115.973 53.5447 116.084 53.7809 116.097 54.0695C116.266 54.8568 116.377 55.6835 116.429 56.5495C116.481 57.4156 116.494 58.2291 116.468 58.9902C116.455 59.7512 116.468 60.5582 116.507 61.4111C116.52 61.6735 116.435 61.9032 116.253 62.1C116.071 62.2968 115.843 62.4018 115.569 62.4149C115.296 62.428 115.061 62.3428 114.866 62.159C114.67 61.9753 114.566 61.7523 114.553 61.4898V61.1946C114.162 61.6014 113.752 61.8966 113.322 62.0803ZM112.443 60.3089C112.639 60.2564 112.795 60.2039 112.912 60.1514C113.029 60.0989 113.173 60.0202 113.342 59.9152C113.524 59.8103 113.713 59.6791 113.908 59.5216C114.104 59.3641 114.28 59.1673 114.436 58.9311C114.462 58.9049 114.495 58.8786 114.534 58.8524C114.534 57.081 114.423 55.6573 114.202 54.5813C114.162 54.5288 114.117 54.4829 114.065 54.4435C114.026 54.391 113.993 54.3517 113.967 54.3254C113.954 54.2992 113.928 54.2795 113.889 54.2664C113.863 54.2401 113.83 54.2139 113.791 54.1876C113.166 53.8465 112.508 53.8399 111.818 54.168C111.128 54.4829 110.522 55.0799 110.001 55.9591C109.48 56.8513 109.219 57.6321 109.219 58.3013C109.232 58.9574 109.486 59.5019 109.981 59.9349C110.281 60.1842 110.652 60.3417 111.095 60.4073C111.538 60.4729 111.987 60.4401 112.443 60.3089Z" fill="white"/>
<path d="M120.364 60.4467C120.598 60.6697 120.716 60.9387 120.716 61.2537C120.716 61.5555 120.605 61.8179 120.383 62.041C120.162 62.264 119.895 62.3756 119.582 62.3756C119.27 62.3756 119.003 62.264 118.781 62.041C118.573 61.8179 118.469 61.5555 118.469 61.2537C118.469 60.9387 118.573 60.6697 118.781 60.4467C119.003 60.2236 119.27 60.1121 119.582 60.1121C119.895 60.1121 120.155 60.2236 120.364 60.4467Z" fill="white"/>
<path d="M127.364 62.4346C126.622 62.4477 125.893 62.3165 125.176 62.041C124.473 61.7654 123.893 61.3652 123.437 60.8403C122.968 60.2892 122.656 59.6331 122.5 58.8721C122.356 58.0979 122.35 57.3631 122.48 56.6676C122.623 55.9722 122.858 55.303 123.183 54.66C123.444 54.1745 123.756 53.7415 124.121 53.361C124.486 52.9673 124.909 52.6393 125.391 52.3768C125.886 52.1013 126.407 51.957 126.954 51.9438C127.514 51.9176 128.113 52.0357 128.752 52.2981C129.09 52.4556 129.435 52.7049 129.787 53.0461L130.412 53.6759C130.621 53.8465 130.738 54.0695 130.764 54.3451C130.79 54.6207 130.712 54.8634 130.53 55.0733C130.36 55.2702 130.139 55.3817 129.865 55.408C129.592 55.4342 129.357 55.3555 129.162 55.1718C129.045 55.0799 128.908 54.9553 128.752 54.7978L128.419 54.4632C128.237 54.2795 128.087 54.1614 127.97 54.1089C127.384 53.8465 126.824 53.853 126.29 54.1286C125.756 54.391 125.3 54.8765 124.922 55.5851C124.531 56.3199 124.336 57.0547 124.336 57.7895C124.349 58.5243 124.545 59.1083 124.922 59.5413C125.157 59.8168 125.495 60.0399 125.938 60.2105C126.381 60.3811 126.85 60.4664 127.345 60.4664C128.348 60.4401 128.993 60.0793 129.279 59.3838L129.26 59.2854V58.7146C129.273 58.4391 129.377 58.216 129.572 58.0454C129.781 57.8617 130.022 57.7764 130.295 57.7895C130.569 57.8027 130.79 57.9142 130.959 58.1241C131.142 58.321 131.226 58.5572 131.213 58.8327V59.2657C131.226 59.5938 131.181 59.8824 131.077 60.1318C130.777 60.8928 130.282 61.4636 129.592 61.8441C128.914 62.2247 128.172 62.4215 127.364 62.4346Z" fill="white"/>
<path d="M138.486 62.2575C136.766 62.6774 135.392 62.3296 134.363 61.2143C133.543 60.3614 133.035 59.2657 132.839 57.9273C132.696 56.8776 132.82 55.8803 133.211 54.9356C133.68 53.7284 134.422 52.8361 135.438 52.2588C135.646 52.1407 135.907 52.0554 136.219 52.0029C136.232 52.0029 136.324 51.9963 136.493 51.9832C136.558 51.9701 136.61 51.957 136.649 51.9438C136.845 51.9045 137.04 51.9242 137.235 52.0029C137.287 52.0029 137.411 52.0094 137.607 52.0226C137.802 52.0226 137.932 52.0291 137.997 52.0422C138.062 52.0422 138.173 52.0554 138.33 52.0816C138.499 52.0947 138.636 52.1144 138.74 52.1407L139.111 52.2784C139.267 52.3309 139.417 52.3965 139.56 52.4753C139.704 52.554 139.86 52.6458 140.029 52.7508C140.876 53.3282 141.462 54.1417 141.788 55.1914C142.113 56.2281 142.198 57.0678 142.042 57.7108C141.924 58.4194 141.716 59.082 141.416 59.6987C141.117 60.3023 140.7 60.8403 140.166 61.3127C139.645 61.7851 139.085 62.1 138.486 62.2575ZM137.88 60.2105C138.44 60.1318 138.916 59.8431 139.306 59.3445C139.71 58.8327 139.971 58.2947 140.088 57.7305C140.218 57.1663 140.173 56.5495 139.951 55.8803C139.743 55.198 139.404 54.7059 138.935 54.4041C138.792 54.2992 138.675 54.227 138.583 54.1876C138.492 54.1352 138.382 54.0958 138.251 54.0695C138.134 54.0302 138.036 54.0105 137.958 54.0105C137.893 54.0105 137.743 54.0039 137.509 53.9908C137.274 53.9777 137.066 53.9646 136.884 53.9514C136.845 53.9514 136.799 53.9449 136.747 53.9318C136.604 53.9449 136.526 53.9514 136.513 53.9514L136.376 53.9908C135.803 54.3057 135.36 54.8109 135.047 55.5064C134.748 56.1887 134.663 56.8973 134.793 57.6321C134.936 58.5243 135.256 59.2001 135.751 59.6594C136.285 60.158 136.994 60.3417 137.88 60.2105Z" fill="white"/>
<path d="M156.135 61.5292C156.122 61.293 156.103 61.0765 156.077 60.8797C156.064 60.6697 156.051 60.5188 156.038 60.427C156.038 60.322 156.031 60.2367 156.018 60.1711C156.018 60.0924 156.018 60.0071 156.018 59.9152V58.7933C156.018 58.5834 156.025 58.216 156.038 57.6911C156.064 57.1531 156.07 56.7004 156.057 56.333C156.057 55.9656 156.025 55.6179 155.96 55.2899C155.881 54.8306 155.745 54.5026 155.549 54.3057C155.354 54.0958 155.054 53.9908 154.65 53.9908C153.752 54.0039 152.853 54.555 151.954 55.6441C151.993 56.0378 152.013 56.7988 152.013 57.9273C152.013 58.754 152.032 59.9087 152.072 61.3914C152.085 61.6539 151.993 61.8835 151.798 62.0803C151.616 62.2771 151.388 62.3821 151.114 62.3952C150.854 62.4084 150.626 62.3231 150.43 62.1394C150.235 61.9425 150.131 61.7064 150.118 61.4308C150.079 59.948 150.059 58.7802 150.059 57.9273V56.9432C150.059 56.8776 150.053 56.7398 150.04 56.5299C150.04 56.3199 150.033 56.169 150.02 56.0772C150.02 55.9722 150.007 55.841 149.981 55.6835C149.968 55.5129 149.948 55.3686 149.922 55.2505C149.909 55.1193 149.883 54.9946 149.844 54.8765C149.74 54.5091 149.597 54.2532 149.414 54.1089C149.219 53.9514 148.926 53.8924 148.535 53.9318C148.105 53.9711 147.734 54.0892 147.422 54.2861C147.122 54.4829 146.816 54.7978 146.503 55.2308C146.438 55.3095 146.367 55.3817 146.288 55.4473C146.34 58.0716 146.34 60.0727 146.288 61.4505C146.275 61.726 146.171 61.9557 145.976 62.1394C145.78 62.3231 145.546 62.4084 145.272 62.3952C144.999 62.3821 144.771 62.2771 144.589 62.0803C144.406 61.8835 144.322 61.6473 144.335 61.3717C144.361 59.9152 144.374 58.9836 144.374 58.5768C144.374 58.1569 144.354 57.2056 144.315 55.7229C144.289 54.227 144.276 53.2691 144.276 52.8492C144.276 52.6524 144.367 52.4556 144.55 52.2588C144.745 52.0619 144.973 51.9635 145.233 51.9635C145.494 51.9635 145.728 52.0488 145.937 52.2194C146.145 52.3768 146.243 52.6786 146.23 53.1248C146.816 52.4293 147.532 52.0422 148.379 51.9635C149.278 51.8848 150.027 52.0882 150.626 52.5737C150.938 52.823 151.218 53.1707 151.466 53.6168C152.273 52.5934 153.335 52.0422 154.65 51.9635C155.614 51.9504 156.389 52.2522 156.975 52.8689C157.431 53.4069 157.737 54.0958 157.894 54.9356C157.959 55.3292 157.998 55.7622 158.011 56.2346C158.024 56.6939 158.017 57.2187 157.991 57.8092C157.978 58.3866 157.972 58.7146 157.972 58.7933V59.8759C157.972 59.9415 157.972 60.0071 157.972 60.0727C157.985 60.1383 157.991 60.217 157.991 60.3089C158.004 60.3876 158.017 60.5254 158.031 60.7222C158.044 60.919 158.063 61.1356 158.089 61.3717C158.102 61.6473 158.017 61.8901 157.835 62.1C157.666 62.2968 157.444 62.4018 157.171 62.4149C156.91 62.4412 156.676 62.369 156.467 62.1984C156.272 62.0147 156.161 61.7916 156.135 61.5292Z" fill="white"/>
</svg>
