<svg width="32" height="32" viewBox="0 0 32 32" fill="none" xmlns="http://www.w3.org/2000/svg">
<rect width="32" height="32" fill="white"/>
<path fill-rule="evenodd" clip-rule="evenodd" d="M15.8511 4.04255C15.8511 4.06596 15.7745 4.08511 15.6809 4.08511C15.5873 4.08511 15.5107 4.10426 15.5107 4.12766C15.5107 4.15106 15.4532 4.17021 15.383 4.17021C15.3128 4.17021 15.2553 4.18936 15.2553 4.21277C15.2553 4.23617 15.2213 4.25532 15.1796 4.25532C15.138 4.25532 15.0763 4.29362 15.0426 4.34043C15.0089 4.38723 14.9562 4.42553 14.9257 4.42553C14.8534 4.42553 14.4894 4.78957 14.4894 4.86181C14.4894 4.89234 14.4511 4.945 14.4043 4.97872C14.3575 5.01245 14.3192 5.07415 14.3192 5.11574C14.3192 5.15745 14.3 5.19149 14.2766 5.19149C14.2532 5.19149 14.2341 5.22979 14.2341 5.2766C14.2341 5.3234 14.2149 5.3617 14.1915 5.3617C14.1681 5.3617 14.149 5.4 14.149 5.44681C14.149 5.49362 14.1298 5.53191 14.1064 5.53191C14.083 5.53191 14.0639 5.57021 14.0639 5.61702C14.0639 5.66383 14.0447 5.70213 14.0213 5.70213C13.9979 5.70213 13.9787 5.74043 13.9787 5.78723C13.9787 5.83404 13.9596 5.87234 13.9362 5.87234C13.9128 5.87234 13.8936 5.91064 13.8936 5.95745C13.8936 6.00426 13.8745 6.04255 13.8511 6.04255C13.8277 6.04255 13.8085 6.08085 13.8085 6.12766C13.8085 6.17447 13.7894 6.21277 13.766 6.21277C13.7426 6.21277 13.7234 6.25106 13.7234 6.29787C13.7234 6.34468 13.7043 6.38298 13.6809 6.38298C13.6575 6.38298 13.6383 6.42128 13.6383 6.46809C13.6383 6.51489 13.6192 6.55319 13.5958 6.55319C13.5724 6.55319 13.5532 6.59149 13.5532 6.6383C13.5532 6.68511 13.5341 6.7234 13.5107 6.7234C13.4873 6.7234 13.4681 6.7617 13.4681 6.80851C13.4681 6.85532 13.449 6.89362 13.4256 6.89362C13.4021 6.89362 13.383 6.93191 13.383 6.97872C13.383 7.02553 13.3639 7.06383 13.3404 7.06383C13.317 7.06383 13.2979 7.10213 13.2979 7.14894C13.2979 7.19574 13.2787 7.23404 13.2553 7.23404C13.2319 7.23404 13.2128 7.27234 13.2128 7.31915C13.2128 7.36596 13.1936 7.40426 13.1702 7.40426C13.1468 7.40426 13.1277 7.44255 13.1277 7.48936C13.1277 7.53617 13.1085 7.57447 13.0851 7.57447C13.0617 7.57447 13.0426 7.61277 13.0426 7.65957C13.0426 7.70638 13.0234 7.74468 13 7.74468C12.9766 7.74468 12.9575 7.78298 12.9575 7.82979C12.9575 7.8766 12.9383 7.91489 12.9149 7.91489C12.8915 7.91489 12.8724 7.95319 12.8724 8C12.8724 8.04681 12.8532 8.08511 12.8298 8.08511C12.8064 8.08511 12.7873 8.1234 12.7873 8.17021C12.7873 8.21702 12.7681 8.25532 12.7447 8.25532C12.7213 8.25532 12.7021 8.29362 12.7021 8.34042C12.7021 8.38723 12.683 8.42553 12.6596 8.42553C12.6362 8.42553 12.617 8.46383 12.617 8.51064C12.617 8.55745 12.5979 8.59574 12.5745 8.59574C12.5511 8.59574 12.5319 8.63404 12.5319 8.68085C12.5319 8.72766 12.5128 8.76596 12.4894 8.76596C12.466 8.76596 12.4468 8.80425 12.4468 8.85106C12.4468 8.89787 12.4277 8.93617 12.4043 8.93617C12.3809 8.93617 12.3617 8.97447 12.3617 9.02128C12.3617 9.06809 12.3426 9.10638 12.3192 9.10638C12.2958 9.10638 12.2766 9.14468 12.2766 9.19149C12.2766 9.2383 12.2575 9.2766 12.2341 9.2766C12.2107 9.2766 12.1915 9.31489 12.1915 9.3617C12.1915 9.40851 12.1724 9.44681 12.149 9.44681C12.1256 9.44681 12.1064 9.48511 12.1064 9.53192C12.1064 9.57872 12.0873 9.61702 12.0639 9.61702C12.0404 9.61702 12.0213 9.65532 12.0213 9.70213C12.0213 9.74894 12.0021 9.78723 11.9787 9.78723C11.9553 9.78723 11.9362 9.82553 11.9362 9.87234C11.9362 9.91915 11.917 9.95745 11.8936 9.95745C11.8702 9.95745 11.8511 9.99574 11.8511 10.0426C11.8511 10.0894 11.8319 10.1277 11.8085 10.1277C11.7851 10.1277 11.766 10.166 11.766 10.2128C11.766 10.2596 11.7468 10.2979 11.7234 10.2979C11.7 10.2979 11.6809 10.3362 11.6809 10.383C11.6809 10.4298 11.6617 10.4681 11.6383 10.4681C11.6149 10.4681 11.5958 10.5064 11.5958 10.5532C11.5958 10.6 11.5766 10.6383 11.5532 10.6383C11.5298 10.6383 11.5107 10.7149 11.5107 10.8085V10.9787H18.0213C22.3333 10.9787 24.5319 10.9644 24.5319 10.9362C24.5319 10.9128 24.5894 10.8936 24.6596 10.8936C24.7298 10.8936 24.7873 10.8745 24.7873 10.8511C24.7873 10.8277 24.8256 10.8085 24.8724 10.8085C24.9192 10.8085 24.9575 10.7894 24.9575 10.766C24.9575 10.7426 24.9881 10.7234 25.0256 10.7234C25.0629 10.7234 25.1471 10.666 25.2128 10.5957C25.2784 10.5255 25.3627 10.4681 25.4 10.4681C25.4375 10.4681 25.4681 10.4374 25.4681 10.4C25.4681 10.3627 25.5256 10.2784 25.5958 10.2128C25.666 10.1471 25.7234 10.0629 25.7234 10.0255C25.7234 9.98809 25.7426 9.95745 25.766 9.95745C25.7894 9.95745 25.8085 9.91915 25.8085 9.87234C25.8085 9.82553 25.8277 9.78723 25.8511 9.78723C25.8745 9.78723 25.8936 9.74894 25.8936 9.70213C25.8936 9.65532 25.9128 9.61702 25.9362 9.61702C25.9596 9.61702 25.9787 9.57872 25.9787 9.53192C25.9787 9.48511 25.9979 9.44681 26.0213 9.44681C26.0447 9.44681 26.0638 9.40851 26.0638 9.3617C26.0638 9.31489 26.083 9.2766 26.1064 9.2766C26.1298 9.2766 26.149 9.2383 26.149 9.19149C26.149 9.14468 26.1681 9.10638 26.1915 9.10638C26.2149 9.10638 26.2341 9.06809 26.2341 9.02128C26.2341 8.97447 26.2532 8.93617 26.2766 8.93617C26.3 8.93617 26.3192 8.89787 26.3192 8.85106C26.3192 8.80425 26.3383 8.76596 26.3617 8.76596C26.3851 8.76596 26.4043 8.72766 26.4043 8.68085C26.4043 8.63404 26.4234 8.59574 26.4468 8.59574C26.4702 8.59574 26.4894 8.55745 26.4894 8.51064C26.4894 8.46383 26.5085 8.42553 26.5319 8.42553C26.5553 8.42553 26.5745 8.38723 26.5745 8.34042C26.5745 8.29362 26.5936 8.25532 26.617 8.25532C26.6404 8.25532 26.6596 8.21702 26.6596 8.17021C26.6596 8.1234 26.6787 8.08511 26.7021 8.08511C26.7256 8.08511 26.7447 8.04681 26.7447 8C26.7447 7.95319 26.7639 7.91489 26.7873 7.91489C26.8107 7.91489 26.8298 7.8766 26.8298 7.82979C26.8298 7.78298 26.849 7.74468 26.8724 7.74468C26.8958 7.74468 26.9149 7.70638 26.9149 7.65957C26.9149 7.61277 26.9341 7.57447 26.9575 7.57447C26.9809 7.57447 27 7.53617 27 7.48936C27 7.44255 27.0192 7.40426 27.0426 7.40426C27.066 7.40426 27.0851 7.36596 27.0851 7.31915C27.0851 7.27234 27.1043 7.23404 27.1277 7.23404C27.1511 7.23404 27.1702 7.19574 27.1702 7.14894C27.1702 7.10213 27.1894 7.06383 27.2128 7.06383C27.2362 7.06383 27.2553 7.02553 27.2553 6.97872C27.2553 6.93191 27.2745 6.89362 27.2979 6.89362C27.3213 6.89362 27.3404 6.85532 27.3404 6.80851C27.3404 6.7617 27.3596 6.7234 27.383 6.7234C27.4064 6.7234 27.4256 6.68511 27.4256 6.6383C27.4256 6.59149 27.4447 6.55319 27.4681 6.55319C27.4915 6.55319 27.5107 6.51489 27.5107 6.46809C27.5107 6.42128 27.5298 6.38298 27.5532 6.38298C27.5766 6.38298 27.5958 6.34468 27.5958 6.29787C27.5958 6.25106 27.6149 6.21277 27.6383 6.21277C27.6617 6.21277 27.6809 6.17447 27.6809 6.12766C27.6809 6.08085 27.7 6.04255 27.7234 6.04255C27.7468 6.04255 27.766 6.00426 27.766 5.95745C27.766 5.91064 27.7851 5.87234 27.8085 5.87234C27.8319 5.87234 27.8511 5.83404 27.8511 5.78723C27.8511 5.74043 27.8702 5.70213 27.8936 5.70213C27.917 5.70213 27.9362 5.66383 27.9362 5.61702C27.9362 5.57021 27.9553 5.53191 27.9787 5.53191C28.0021 5.53191 28.0213 5.49362 28.0213 5.44681C28.0213 5.4 28.0404 5.3617 28.0639 5.3617C28.0873 5.3617 28.1064 5.3234 28.1064 5.2766C28.1064 5.22979 28.1256 5.19149 28.149 5.19149C28.1724 5.19149 28.1915 5.15319 28.1915 5.10638C28.1915 5.05957 28.2107 5.02128 28.2341 5.02128C28.2575 5.02128 28.2766 4.98298 28.2766 4.93617C28.2766 4.88936 28.2958 4.85106 28.3192 4.85106C28.3426 4.85106 28.3617 4.81277 28.3617 4.76596C28.3617 4.71915 28.3809 4.68085 28.4043 4.68085C28.4277 4.68085 28.4468 4.64255 28.4468 4.59574C28.4468 4.54894 28.466 4.51064 28.4894 4.51064C28.5128 4.51064 28.5319 4.47234 28.5319 4.42553C28.5319 4.37872 28.5511 4.34043 28.5745 4.34043C28.5979 4.34043 28.617 4.26383 28.617 4.17021V4H22.2341C18.0071 4 15.8511 4.01436 15.8511 4.04255ZM8.87236 21.0638C8.87236 21.0872 8.81492 21.1064 8.7447 21.1064C8.67449 21.1064 8.61704 21.1255 8.61704 21.1489C8.61704 21.1723 8.56385 21.1915 8.49874 21.1915C8.42928 21.1915 8.35523 21.2266 8.31917 21.2766C8.28545 21.3234 8.23289 21.3617 8.20247 21.3617C8.13034 21.3617 7.68087 21.8112 7.68087 21.8833C7.68087 21.9137 7.64257 21.9663 7.59577 22C7.54896 22.0337 7.51066 22.0954 7.51066 22.137C7.51066 22.1787 7.49151 22.2128 7.46811 22.2128C7.4447 22.2128 7.42555 22.2511 7.42555 22.2979C7.42555 22.3447 7.4064 22.383 7.383 22.383C7.3596 22.383 7.34045 22.4213 7.34045 22.4681C7.34045 22.5149 7.3213 22.5532 7.29789 22.5532C7.27449 22.5532 7.25534 22.5915 7.25534 22.6383C7.25534 22.6851 7.23619 22.7234 7.21279 22.7234C7.18938 22.7234 7.17023 22.7617 7.17023 22.8085C7.17023 22.8553 7.15108 22.8936 7.12768 22.8936C7.10428 22.8936 7.08513 22.9319 7.08513 22.9787C7.08513 23.0255 7.06598 23.0638 7.04257 23.0638C7.01917 23.0638 7.00002 23.1021 7.00002 23.1489C7.00002 23.1957 6.98087 23.234 6.95747 23.234C6.93406 23.234 6.91491 23.2723 6.91491 23.3191C6.91491 23.366 6.89577 23.4043 6.87236 23.4043C6.84896 23.4043 6.82981 23.4426 6.82981 23.4894C6.82981 23.5362 6.81066 23.5745 6.78725 23.5745C6.76385 23.5745 6.7447 23.6128 6.7447 23.6596C6.7447 23.7064 6.72555 23.7447 6.70215 23.7447C6.67874 23.7447 6.6596 23.783 6.6596 23.8298C6.6596 23.8766 6.64045 23.9149 6.61704 23.9149C6.59364 23.9149 6.57449 23.9532 6.57449 24C6.57449 24.0468 6.55534 24.0851 6.53194 24.0851C6.50853 24.0851 6.48938 24.1234 6.48938 24.1702C6.48938 24.217 6.47023 24.2553 6.44683 24.2553C6.42343 24.2553 6.40428 24.2936 6.40428 24.3404C6.40428 24.3872 6.38513 24.4255 6.36172 24.4255C6.33832 24.4255 6.31917 24.4638 6.31917 24.5106C6.31917 24.5574 6.30002 24.5957 6.27662 24.5957C6.25321 24.5957 6.23406 24.634 6.23406 24.6808C6.23406 24.7277 6.21491 24.766 6.19151 24.766C6.16811 24.766 6.14896 24.8043 6.14896 24.8511C6.14896 24.8979 6.12981 24.9362 6.1064 24.9362C6.083 24.9362 6.06385 24.9745 6.06385 25.0213C6.06385 25.0681 6.0447 25.1064 6.0213 25.1064C5.99789 25.1064 5.97874 25.1447 5.97874 25.1915C5.97874 25.2383 5.9596 25.2766 5.93619 25.2766C5.91279 25.2766 5.89364 25.3149 5.89364 25.3617C5.89364 25.4085 5.87449 25.4468 5.85108 25.4468C5.82768 25.4468 5.80853 25.4851 5.80853 25.5319C5.80853 25.5787 5.78938 25.617 5.76598 25.617C5.74257 25.617 5.72342 25.6553 5.72342 25.7021C5.72342 25.7489 5.70428 25.7872 5.68087 25.7872C5.65747 25.7872 5.63832 25.8255 5.63832 25.8723C5.63832 25.9191 5.61917 25.9574 5.59577 25.9574C5.57236 25.9574 5.55321 25.9957 5.55321 26.0426C5.55321 26.0894 5.53406 26.1277 5.51066 26.1277C5.48725 26.1277 5.46811 26.166 5.46811 26.2128C5.46811 26.2596 5.44896 26.2979 5.42555 26.2979C5.40215 26.2979 5.383 26.3362 5.383 26.383C5.383 26.4298 5.36385 26.4681 5.34045 26.4681C5.31704 26.4681 5.29789 26.5064 5.29789 26.5532C5.29789 26.6 5.27874 26.6383 5.25534 26.6383C5.23194 26.6383 5.21279 26.6766 5.21279 26.7234C5.21279 26.7702 5.19364 26.8085 5.17023 26.8085C5.14683 26.8085 5.12768 26.8468 5.12768 26.8936C5.12768 26.9404 5.10853 26.9787 5.08513 26.9787C5.06172 26.9787 5.04257 27.017 5.04257 27.0638C5.04257 27.1106 5.02343 27.1489 5.00002 27.1489C4.97662 27.1489 4.95747 27.1872 4.95747 27.234C4.95747 27.2808 4.93832 27.3191 4.91491 27.3191C4.89151 27.3191 4.87236 27.3574 4.87236 27.4043C4.87236 27.4511 4.85321 27.4894 4.82981 27.4894C4.8064 27.4894 4.78726 27.5277 4.78726 27.5745C4.78726 27.6213 4.76811 27.6596 4.7447 27.6596C4.7213 27.6596 4.70215 27.7362 4.70215 27.8298V28H11.1702C15.454 28 17.6383 27.9856 17.6383 27.9574C17.6383 27.934 17.7149 27.9149 17.8085 27.9149C17.9021 27.9149 17.9787 27.8957 17.9787 27.8723C17.9787 27.8489 18.017 27.8298 18.0639 27.8298C18.1107 27.8298 18.149 27.8106 18.149 27.7872C18.149 27.7638 18.178 27.7447 18.2134 27.7447C18.249 27.7447 18.4213 27.6014 18.5964 27.4262C18.7716 27.2511 18.9149 27.0787 18.9149 27.0432C18.9149 27.0078 18.9341 26.9787 18.9575 26.9787C18.9809 26.9787 19 26.9404 19 26.8936C19 26.8468 19.0192 26.8085 19.0426 26.8085C19.066 26.8085 19.0851 26.7702 19.0851 26.7234C19.0851 26.6766 19.1043 26.6383 19.1277 26.6383C19.1511 26.6383 19.1702 26.6 19.1702 26.5532C19.1702 26.5064 19.1894 26.4681 19.2128 26.4681C19.2362 26.4681 19.2553 26.4298 19.2553 26.383C19.2553 26.3362 19.2745 26.2979 19.2979 26.2979C19.3213 26.2979 19.3404 26.2596 19.3404 26.2128C19.3404 26.166 19.3596 26.1277 19.383 26.1277C19.4064 26.1277 19.4256 26.0894 19.4256 26.0426C19.4256 25.9957 19.4447 25.9574 19.4681 25.9574C19.4915 25.9574 19.5107 25.9191 19.5107 25.8723C19.5107 25.8255 19.5298 25.7872 19.5532 25.7872C19.5766 25.7872 19.5958 25.7489 19.5958 25.7021C19.5958 25.6553 19.6149 25.617 19.6383 25.617C19.6617 25.617 19.6809 25.5787 19.6809 25.5319C19.6809 25.4851 19.7 25.4468 19.7234 25.4468C19.7468 25.4468 19.766 25.4085 19.766 25.3617C19.766 25.3149 19.7851 25.2766 19.8085 25.2766C19.8319 25.2766 19.8511 25.2383 19.8511 25.1915C19.8511 25.1447 19.8702 25.1064 19.8936 25.1064C19.917 25.1064 19.9362 25.0681 19.9362 25.0213C19.9362 24.9745 19.9553 24.9362 19.9787 24.9362C20.0021 24.9362 20.0213 24.8979 20.0213 24.8511C20.0213 24.8043 20.0404 24.766 20.0639 24.766C20.0873 24.766 20.1064 24.7277 20.1064 24.6808C20.1064 24.634 20.1256 24.5957 20.149 24.5957C20.1724 24.5957 20.1915 24.5574 20.1915 24.5106C20.1915 24.4638 20.2107 24.4255 20.2341 24.4255C20.2575 24.4255 20.2766 24.3872 20.2766 24.3404C20.2766 24.2936 20.2958 24.2553 20.3192 24.2553C20.3426 24.2553 20.3617 24.217 20.3617 24.1702C20.3617 24.1234 20.3809 24.0851 20.4043 24.0851C20.4277 24.0851 20.4468 24.0468 20.4468 24C20.4468 23.9532 20.466 23.9149 20.4894 23.9149C20.5128 23.9149 20.5319 23.8766 20.5319 23.8298C20.5319 23.783 20.5511 23.7447 20.5745 23.7447C20.5979 23.7447 20.617 23.7064 20.617 23.6596C20.617 23.6128 20.6362 23.5745 20.6596 23.5745C20.683 23.5745 20.7021 23.5362 20.7021 23.4894C20.7021 23.4426 20.7213 23.4043 20.7447 23.4043C20.7681 23.4043 20.7873 23.366 20.7873 23.3191C20.7873 23.2723 20.8064 23.234 20.8298 23.234C20.8532 23.234 20.8724 23.1957 20.8724 23.1489C20.8724 23.1021 20.8915 23.0638 20.9149 23.0638C20.9383 23.0638 20.9575 23.0255 20.9575 22.9787C20.9575 22.9319 20.9766 22.8936 21 22.8936C21.0234 22.8936 21.0426 22.8553 21.0426 22.8085C21.0426 22.7617 21.0617 22.7234 21.0851 22.7234C21.1085 22.7234 21.1277 22.6851 21.1277 22.6383C21.1277 22.5915 21.1468 22.5532 21.1702 22.5532C21.1936 22.5532 21.2128 22.5149 21.2128 22.4681C21.2128 22.4213 21.2319 22.383 21.2553 22.383C21.2787 22.383 21.2979 22.3447 21.2979 22.2979C21.2979 22.2511 21.317 22.2128 21.3404 22.2128C21.3639 22.2128 21.383 22.1745 21.383 22.1277C21.383 22.0808 21.4022 22.0426 21.4256 22.0426C21.449 22.0426 21.4681 22.0043 21.4681 21.9574C21.4681 21.9106 21.4873 21.8723 21.5107 21.8723C21.5341 21.8723 21.5532 21.834 21.5532 21.7872C21.5532 21.7404 21.5724 21.7021 21.5958 21.7021C21.6192 21.7021 21.6383 21.6638 21.6383 21.617C21.6383 21.5702 21.6575 21.5319 21.6809 21.5319C21.7043 21.5319 21.7234 21.4936 21.7234 21.4468C21.7234 21.4 21.7426 21.3617 21.766 21.3617C21.7894 21.3617 21.8085 21.2851 21.8085 21.1915V21.0213H15.3404C11.0567 21.0213 8.87236 21.0356 8.87236 21.0638Z" fill="#5C04CC"/>
<path fill-rule="evenodd" clip-rule="evenodd" d="M7.25532 12.5533C7.25532 12.5767 7.17872 12.5958 7.08511 12.5958C6.99149 12.5958 6.91489 12.615 6.91489 12.6384C6.91489 12.6618 6.8766 12.681 6.82979 12.681C6.78298 12.681 6.74468 12.7001 6.74468 12.7235C6.74468 12.7469 6.70638 12.7661 6.65957 12.7661C6.61277 12.7661 6.57447 12.7852 6.57447 12.8086C6.57447 12.832 6.54532 12.8512 6.50968 12.8512C6.47415 12.8512 6.34011 12.9561 6.21181 13.0843C6.08362 13.2125 5.97872 13.3466 5.97872 13.3821C5.97872 13.4178 5.95957 13.4469 5.93617 13.4469C5.91277 13.4469 5.89362 13.4852 5.89362 13.532C5.89362 13.5788 5.87447 13.6171 5.85106 13.6171C5.82766 13.6171 5.80851 13.6554 5.80851 13.7022C5.80851 13.749 5.78936 13.7873 5.76596 13.7873C5.74255 13.7873 5.7234 13.8256 5.7234 13.8724C5.7234 13.9193 5.70426 13.9575 5.68085 13.9575C5.65745 13.9575 5.6383 13.9958 5.6383 14.0427C5.6383 14.0895 5.61915 14.1278 5.59574 14.1278C5.57234 14.1278 5.55319 14.1661 5.55319 14.2129C5.55319 14.2597 5.53404 14.298 5.51064 14.298C5.48723 14.298 5.46809 14.3363 5.46809 14.3831C5.46809 14.4299 5.44894 14.4682 5.42553 14.4682C5.40213 14.4682 5.38298 14.5065 5.38298 14.5533C5.38298 14.6001 5.36383 14.6384 5.34043 14.6384C5.31702 14.6384 5.29787 14.6767 5.29787 14.7235C5.29787 14.7703 5.27872 14.8086 5.25532 14.8086C5.23192 14.8086 5.21277 14.8469 5.21277 14.8937C5.21277 14.9405 5.19362 14.9788 5.17021 14.9788C5.14681 14.9788 5.12766 15.0171 5.12766 15.0639C5.12766 15.1107 5.10851 15.149 5.08511 15.149C5.0617 15.149 5.04255 15.1873 5.04255 15.2341C5.04255 15.281 5.0234 15.3193 5 15.3193C4.9766 15.3193 4.95745 15.3576 4.95745 15.4044C4.95745 15.4512 4.9383 15.4895 4.91489 15.4895C4.89149 15.4895 4.87234 15.5278 4.87234 15.5746C4.87234 15.6214 4.85319 15.6597 4.82979 15.6597C4.80638 15.6597 4.78723 15.698 4.78723 15.7448C4.78723 15.7916 4.76809 15.8299 4.74468 15.8299C4.72128 15.8299 4.70213 15.8682 4.70213 15.915C4.70213 15.9618 4.68298 16.0001 4.65957 16.0001C4.63617 16.0001 4.61702 16.0384 4.61702 16.0852C4.61702 16.132 4.59787 16.1703 4.57447 16.1703C4.55106 16.1703 4.53192 16.2086 4.53192 16.2554C4.53192 16.3022 4.51277 16.3405 4.48936 16.3405C4.46596 16.3405 4.44681 16.3788 4.44681 16.4256C4.44681 16.4724 4.42766 16.5107 4.40426 16.5107C4.38085 16.5107 4.3617 16.549 4.3617 16.5958C4.3617 16.6427 4.34255 16.681 4.31915 16.681C4.29574 16.681 4.2766 16.7193 4.2766 16.7661C4.2766 16.8129 4.25745 16.8512 4.23404 16.8512C4.21064 16.8512 4.19149 16.8895 4.19149 16.9363C4.19149 16.9831 4.17234 17.0214 4.14894 17.0214C4.12553 17.0214 4.10638 17.0597 4.10638 17.1065C4.10638 17.1533 4.08723 17.1916 4.06383 17.1916C4.04043 17.1916 4.02128 17.2299 4.02128 17.2767C4.02128 17.3235 4.00213 17.3618 3.97872 17.3618C3.95532 17.3618 3.93617 17.4001 3.93617 17.4469C3.93617 17.4937 3.91702 17.532 3.89362 17.532C3.87021 17.532 3.85106 17.5703 3.85106 17.6171C3.85106 17.6639 3.83191 17.7022 3.80851 17.7022C3.78511 17.7022 3.76596 17.7405 3.76596 17.7873C3.76596 17.8341 3.74681 17.8724 3.7234 17.8724C3.7 17.8724 3.68085 17.9107 3.68085 17.9576C3.68085 18.0044 3.6617 18.0427 3.6383 18.0427C3.61489 18.0427 3.59574 18.081 3.59574 18.1278C3.59574 18.1746 3.5766 18.2129 3.55319 18.2129C3.52979 18.2129 3.51064 18.2512 3.51064 18.298C3.51064 18.3448 3.49149 18.3831 3.46809 18.3831C3.44468 18.3831 3.42553 18.4214 3.42553 18.4682C3.42553 18.515 3.40638 18.5533 3.38298 18.5533C3.35957 18.5533 3.34043 18.5916 3.34043 18.6384C3.34043 18.6852 3.32128 18.7235 3.29787 18.7235C3.27447 18.7235 3.25532 18.7618 3.25532 18.8086C3.25532 18.8554 3.23617 18.8937 3.21277 18.8937C3.18936 18.8937 3.17021 18.932 3.17021 18.9788C3.17021 19.0256 3.15106 19.0639 3.12766 19.0639C3.10426 19.0639 3.08511 19.1022 3.08511 19.149C3.08511 19.1958 3.06596 19.2341 3.04255 19.2341C3.01915 19.2341 3 19.2916 3 19.3618V19.4895H9.51064C13.8227 19.4895 16.0213 19.4751 16.0213 19.4469C16.0213 19.4235 16.0787 19.4044 16.1489 19.4044C16.2191 19.4044 16.2766 19.3852 16.2766 19.3618C16.2766 19.3384 16.3149 19.3193 16.3617 19.3193C16.4085 19.3193 16.4468 19.3001 16.4468 19.2767C16.4468 19.2533 16.4774 19.2341 16.5149 19.2341C16.5522 19.2341 16.6365 19.1767 16.7021 19.1065C16.7678 19.0363 16.852 18.9788 16.8894 18.9788C16.9268 18.9788 16.9574 18.9482 16.9574 18.9107C16.9574 18.8734 17.0149 18.7891 17.0851 18.7235C17.1553 18.6579 17.2128 18.5736 17.2128 18.5363C17.2128 18.4988 17.2319 18.4682 17.2553 18.4682C17.2787 18.4682 17.2979 18.4299 17.2979 18.3831C17.2979 18.3363 17.317 18.298 17.3404 18.298C17.3638 18.298 17.383 18.2597 17.383 18.2129C17.383 18.1661 17.4021 18.1278 17.4255 18.1278C17.4489 18.1278 17.4681 18.0895 17.4681 18.0427C17.4681 17.9958 17.4872 17.9576 17.5106 17.9576C17.534 17.9576 17.5532 17.9193 17.5532 17.8724C17.5532 17.8256 17.5723 17.7873 17.5957 17.7873C17.6192 17.7873 17.6383 17.749 17.6383 17.7022C17.6383 17.6554 17.6574 17.6171 17.6809 17.6171C17.7043 17.6171 17.7234 17.5788 17.7234 17.532C17.7234 17.4852 17.7426 17.4469 17.766 17.4469C17.7894 17.4469 17.8085 17.4086 17.8085 17.3618C17.8085 17.315 17.8277 17.2767 17.8511 17.2767C17.8745 17.2767 17.8936 17.2384 17.8936 17.1916C17.8936 17.1448 17.9128 17.1065 17.9362 17.1065C17.9596 17.1065 17.9787 17.0682 17.9787 17.0214C17.9787 16.9746 17.9979 16.9363 18.0213 16.9363C18.0447 16.9363 18.0638 16.898 18.0638 16.8512C18.0638 16.8044 18.083 16.7661 18.1064 16.7661C18.1298 16.7661 18.1489 16.7278 18.1489 16.681C18.1489 16.6341 18.1681 16.5958 18.1915 16.5958C18.2149 16.5958 18.234 16.5575 18.234 16.5107C18.234 16.4639 18.2532 16.4256 18.2766 16.4256C18.3 16.4256 18.3191 16.3873 18.3191 16.3405C18.3191 16.2937 18.3383 16.2554 18.3617 16.2554C18.3851 16.2554 18.4043 16.2171 18.4043 16.1703C18.4043 16.1235 18.4234 16.0852 18.4468 16.0852C18.4702 16.0852 18.4894 16.0469 18.4894 16.0001C18.4894 15.9533 18.5085 15.915 18.5319 15.915C18.5553 15.915 18.5745 15.8767 18.5745 15.8299C18.5745 15.7831 18.5936 15.7448 18.617 15.7448C18.6404 15.7448 18.6596 15.7065 18.6596 15.6597C18.6596 15.6129 18.6787 15.5746 18.7021 15.5746C18.7255 15.5746 18.7447 15.5363 18.7447 15.4895C18.7447 15.4427 18.7638 15.4044 18.7872 15.4044C18.8106 15.4044 18.8298 15.3661 18.8298 15.3193C18.8298 15.2724 18.8489 15.2341 18.8723 15.2341C18.8957 15.2341 18.9149 15.1958 18.9149 15.149C18.9149 15.1022 18.934 15.0639 18.9574 15.0639C18.9809 15.0639 19 15.0256 19 14.9788C19 14.932 19.0191 14.8937 19.0426 14.8937C19.066 14.8937 19.0851 14.8554 19.0851 14.8086C19.0851 14.7618 19.1043 14.7235 19.1277 14.7235C19.1511 14.7235 19.1702 14.6852 19.1702 14.6384C19.1702 14.5916 19.1894 14.5533 19.2128 14.5533C19.2362 14.5533 19.2553 14.515 19.2553 14.4682C19.2553 14.4214 19.2745 14.3831 19.2979 14.3831C19.3213 14.3831 19.3404 14.3448 19.3404 14.298C19.3404 14.2512 19.3596 14.2129 19.383 14.2129C19.4064 14.2129 19.4255 14.1746 19.4255 14.1278C19.4255 14.081 19.4447 14.0427 19.4681 14.0427C19.4915 14.0427 19.5106 14.0044 19.5106 13.9575C19.5106 13.9107 19.5298 13.8724 19.5532 13.8724C19.5766 13.8724 19.5957 13.8341 19.5957 13.7873C19.5957 13.7405 19.6149 13.7022 19.6383 13.7022C19.6617 13.7022 19.6809 13.6639 19.6809 13.6171C19.6809 13.5703 19.7 13.532 19.7234 13.532C19.7468 13.532 19.766 13.4937 19.766 13.4469C19.766 13.4001 19.7851 13.3618 19.8085 13.3618C19.8319 13.3618 19.8511 13.3235 19.8511 13.2767C19.8511 13.2299 19.8702 13.1916 19.8936 13.1916C19.917 13.1916 19.9362 13.1533 19.9362 13.1065C19.9362 13.0597 19.9553 13.0214 19.9787 13.0214C20.0021 13.0214 20.0213 12.9831 20.0213 12.9363C20.0213 12.8895 20.0404 12.8512 20.0638 12.8512C20.0872 12.8512 20.1064 12.7746 20.1064 12.681V12.5107H13.6809C9.42553 12.5107 7.25532 12.5251 7.25532 12.5533Z" fill="#FCCC04"/>
</svg>
