<?xml version="1.0" encoding="UTF-8"?> <svg xmlns="http://www.w3.org/2000/svg" width="48" height="48" viewBox="0 0 48 48" fill="none"><g clip-path="url(#clip0_5711_2)"><path d="M42 0H6C2.68629 0 0 2.68629 0 6V42C0 45.3137 2.68629 48 6 48H42C45.3137 48 48 45.3137 48 42V6C48 2.68629 45.3137 0 42 0Z" fill="#1F1F1F"></path><path d="M19.8711 16.5H22.3711L24.9753 28.2708H25.1836L28.3086 16.5H30.7981L33.9231 28.2708H34.1314L36.7357 16.5H39.2148V16.8124L35.746 31.5H32.6419L29.6419 20.3021H29.4336L26.4439 31.5H23.3295L19.8711 16.8124V16.5Z" fill="white"></path><path d="M9 16.5H11.5833V29.5312H19.2291V31.5H9V16.5Z" fill="white"></path></g><defs><clipPath id="clip0_5711_2"><rect width="48" height="48" fill="white"></rect></clipPath></defs></svg> 