<?xml version="1.0" encoding="UTF-8"?>
<svg version="1.1" viewBox="0 0 135 135" xmlns="http://www.w3.org/2000/svg">
 <path x="0" y="0" width="135" height="135" d="m14.862 0h105.12a15.013 15.013 45 0 1 15.013 15.013v104.67a15.316 15.316 135 0 1-15.316 15.316h-104.52a15.165 15.165 45 0 1-15.165-15.165v-104.97a14.862 14.862 135 0 1 14.862-14.862z" fill="#172226"/>
 <path d="m96.39 36.631-33.84 62.87h13.45l33.72-62.87h-13.33z" fill="#3DF2B6"/>
 <path d="m66.45 36.631-22.91 42.56v-24.53h-12.47l-0.07 0.13v44.7h1.61v0.01h13.45l33.72-62.87h-13.33z" fill="#3DF2B6"/>
</svg>
