<?xml version="1.0" encoding="UTF-8" standalone="no"?>
<svg
    width="130"
    height="130"
    viewBox="0 0 130 130"
    fill="none"
    version="1.1"
    xmlns="http://www.w3.org/2000/svg"
    xmlns:svg="http://www.w3.org/2000/svg">
    <path
        d="M 105.33274,1.1566389 C 103.71484,0.34702778 101.86571,0 100.0167,0 97.358687,0 94.585113,0.92528704 92.273761,2.7757407 L 68.005048,22.668991 75.054539,28.336269 97.820909,9.7153333 c 0.693454,-0.5783796 1.386788,-0.8096111 2.195791,-0.8096111 0.57778,0 1.04012,0.1156759 1.50235,0.3469074 0.46222,0.2313519 0.92456,0.5783797 1.27123,0.9252874 0.46222,0.578259 0.69333,1.272314 0.69333,2.197481 v 67.544509 c 0,2.428834 -0.92444,4.395084 -2.6579,6.014306 -10.86318,9.830889 -21.033032,21.975417 -31.54943,32.847267 -0.924565,0.92445 -2.080241,1.50343 -3.351472,1.50343 -1.271232,0 -2.426908,-0.46343 -3.466908,-1.38787 L 29.290567,85.934213 c -1.733574,-1.619222 -2.658019,-3.701148 -2.658019,-6.014306 0,-23.24737 0,-44.412814 0,-67.544509 0,-0.925167 0.231112,-1.619222 0.693334,-2.197481 0.346666,-0.4625837 0.809009,-0.6939355 1.271231,-0.9252874 0.462222,-0.2312315 1.040121,-0.3469074 1.502343,-0.3469074 0.693453,0 1.502342,0.2312315 2.195796,0.8096111 L 62.226669,34.234898 c 1.155676,1.040843 2.658018,2.197482 4.160361,3.354121 3.92925,3.007092 8.089611,6.361212 10.863185,9.368305 0.577898,0.693935 1.155676,1.38787 1.733574,2.197482 3.004685,4.163731 4.275917,8.67437 3.813574,13.069333 -0.462222,4.395083 -2.542342,8.674491 -6.240481,12.144167 -0.693454,0.578259 -1.386787,1.156638 -2.080241,1.734898 -3.235796,2.313157 -7.049491,3.701027 -11.325407,4.510639 -2.426908,0.462703 -4.96925,0.809611 -7.627269,0.925287 -0.693454,0 -1.271231,-0.115676 -1.733574,-0.57826 -0.462222,-0.462703 -0.693333,-1.040963 -0.693333,-1.619222 V 38.745537 c 0,-5.782954 -8.898621,-5.782954 -8.898621,0 0,15.382611 0,30.880778 0,46.263389 0,1.619222 0.577898,2.891417 1.618019,4.048055 1.155555,1.156519 2.426787,1.619223 4.044685,1.619223 4.96937,0 9.938741,-0.231352 14.907991,-1.272315 5.431592,-1.040843 10.516518,-2.891417 14.792435,-6.129861 1.04012,-0.809611 1.964685,-1.619222 2.88913,-2.428834 C 87.882289,75.871852 90.886974,69.626315 91.464872,63.03375 92.04265,56.556981 90.309197,49.733065 85.917724,43.834556 85.224271,42.909269 84.415382,41.868306 83.490817,40.943019 80.139465,37.357667 75.863428,34.003546 71.818622,30.765102 L 65.115919,25.097824 37.8424,2.7757407 C 35.531048,0.92528704 32.757474,0 30.099456,0 c -1.849009,0 -3.582584,0.46258333 -5.316037,1.1566389 -1.617898,0.8096111 -3.120241,1.9661296 -4.275917,3.354 -1.733454,2.0819259 -2.773574,4.7419907 -2.773574,7.8647591 v 71.476889 c 0,2.428833 0.924565,4.395083 2.658019,6.014306 12.365527,11.218757 25.540064,25.791277 37.905592,37.126557 2.195676,1.96565 4.853695,3.00685 7.627269,3.00685 2.773574,0 5.431592,-1.0412 7.627389,-3.00685 L 109.6083,89.866593 c 1.61777,-1.734899 2.65777,-3.701149 2.65777,-6.014306 V 12.375398 c 0,-3.0070924 -1.04,-5.6671573 -2.77333,-7.7490832 -1.04,-1.5035463 -2.54222,-2.6600648 -4.16,-3.4696759 z"
        fill="url(#paint0_linear_1723_156)"
        style="fill:url(#paint0_linear_1723_156);stroke-width:1.2037" />
    <defs>
        <linearGradient
            id="paint0_linear_1723_156"
            x1="16.1504"
            y1="136.266"
            x2="104.426"
            y2="-16.508"
            gradientUnits="userSpaceOnUse"
            gradientTransform="matrix(1.2037037,0,0,1.2037037,-13.983183,-13.240741)">
            <stop
                stop-color="#3C81E6"
                style="stop-color:#3C81E6;stop-color:color(display-p3 0.2353 0.5059 0.9020);stop-opacity:1;"
                id="stop1" />
            <stop
                offset="0.1522"
                stop-color="#3B88E7"
                style="stop-color:#3B88E7;stop-color:color(display-p3 0.2314 0.5333 0.9059);stop-opacity:1;"
                id="stop2" />
            <stop
                offset="0.3692"
                stop-color="#389AEB"
                style="stop-color:#389AEB;stop-color:color(display-p3 0.2196 0.6039 0.9216);stop-opacity:1;"
                id="stop3" />
            <stop
                offset="0.6249"
                stop-color="#34B9F1"
                style="stop-color:#34B9F1;stop-color:color(display-p3 0.2039 0.7255 0.9451);stop-opacity:1;"
                id="stop4" />
            <stop
                offset="0.9082"
                stop-color="#2EE4FA"
                style="stop-color:#2EE4FA;stop-color:color(display-p3 0.1804 0.8941 0.9804);stop-opacity:1;"
                id="stop5" />
            <stop
                offset="1"
                stop-color="#2CF3FD"
                style="stop-color:#2CF3FD;stop-color:color(display-p3 0.1725 0.9529 0.9922);stop-opacity:1;"
                id="stop6" />
        </linearGradient>
    </defs>
</svg>