<?xml version="1.0" encoding="UTF-8"?>
<svg width="48px" height="48px" viewBox="0 0 48 48" version="1.1" xmlns="http://www.w3.org/2000/svg" xmlns:xlink="http://www.w3.org/1999/xlink">
    <title>网页icon</title>
    <defs>
        <linearGradient x1="47.0082636%" y1="-3.19815232%" x2="68.2884446%" y2="100%" id="linearGradient-1">
            <stop stop-color="#4187FF" offset="0%"></stop>
            <stop stop-color="#1A67FF" offset="34.0007702%"></stop>
            <stop stop-color="#4D49D1" offset="100%"></stop>
        </linearGradient>
        <linearGradient x1="44.7522313%" y1="-32.3482446%" x2="55.2477687%" y2="100%" id="linearGradient-2">
            <stop stop-color="#7AB4FF" offset="0%"></stop>
            <stop stop-color="#1A67FF" offset="54.2769627%"></stop>
            <stop stop-color="#4D49D1" offset="100%"></stop>
        </linearGradient>
        <linearGradient x1="-28.4787507%" y1="-29.6360433%" x2="114.978488%" y2="108.341969%" id="linearGradient-3">
            <stop stop-color="#7AB4FF" offset="0%"></stop>
            <stop stop-color="#1A67FF" offset="35.2463312%"></stop>
            <stop stop-color="#5B41F8" offset="100%"></stop>
        </linearGradient>
    </defs>
    <g id="登录注册" stroke="none" stroke-width="1" fill="none" fill-rule="evenodd">
        <g id="切图2" transform="translate(-210.000000, -944.000000)">
            <g id="网页icon" transform="translate(210.000000, 944.000000)">
                <rect id="矩形" x="0" y="0" width="48" height="48" rx="6"></rect>
                <g id="编组" fill-rule="nonzero">
                    <g id="logo/d">
                        <g id="椭圆形-+-椭圆形备份-+-椭圆形备份-2-蒙版" transform="translate(0.893901, 0.000000)">
                            <path d="M28.9487952,0 C38.8765169,0 46.9433227,8.11944562 47.103666,18.1975199 L47.1060986,18.5035092 L47.1060986,29.4956929 C47.1060986,38.3208991 41.0433626,45.703078 32.9307423,47.5528648 C33.2911707,47.4701865 33.6475064,47.3769785 33.9994647,47.2732055 C37.4598889,43.0954913 39.5455868,37.6968202 39.5455868,31.8017199 C39.5455868,31.4631076 39.5387055,31.1261332 39.5251124,30.7910583 L39.511176,30.4909215 C39.5353111,30.2214971 39.5497441,29.9492143 39.5541158,29.6744392 L39.5555368,29.4956929 L39.5555368,18.5035092 C39.5555368,18.1813222 39.5417042,17.8624276 39.5146111,17.5474085 C39.5351343,17.1973607 39.5455868,16.844461 39.5455868,16.4890734 C39.5455868,8.90709195 34.7880502,2.45747964 28.1491977,0.0712982028 L27.9474475,0 L18.5796834,0.000797885865 L18.4774649,0.00218079221 L18.3466821,0.00800546558 C18.3939595,0.00456377656 18.4381044,0.00258387951 18.4824399,0.00138290635 L18.5846583,0 L28.9487952,0 Z" id="路径" fill="url(#linearGradient-1)"></path>
                            <g id="椭圆形-+-椭圆形备份-+-椭圆形备份-2-蒙版" transform="translate(0.000000, 0.000236)">
                                <path d="M3.0779111,17.0642802 C1.36030513,17.3936009 0.0532438679,18.9083757 0.00628217106,20.7428512 L0.00497498186,20.8450899 L0.00493655005,35.4072736 C1.81012821,37.813589 4.39618433,39.5744172 7.37280972,40.2635857 L7.5505618,40.3032777 L7.61430257,40.3056122 L28.9438202,40.3052349 C34.4842532,40.3052349 39.0357801,36.0105663 39.5125484,30.4906851 C39.5366133,30.9357242 39.5455868,31.3500004 39.5455868,31.8014835 C39.5455868,37.6965837 37.4598889,43.0952549 33.9994647,47.2729691 C32.4860776,47.7191828 30.8917564,47.9700607 29.2440844,47.9972846 L28.9438202,47.9997635 L0,47.9997635 L0,20.8458878 C0,18.9909164 1.28823602,17.4425656 3.00273377,17.079245 L3.0779111,17.0642802 Z" id="路径" fill="#82B0FF"></path>
                                <path d="M27.9474475,0 C34.6914529,2.3270635 39.5455868,8.8302698 39.5455868,16.4888369 C39.5455868,16.855415 39.5365284,17.1862192 39.5146111,17.547172 C39.0593081,12.0682836 34.5920365,7.78696331 29.1192221,7.69653809 L28.9438202,7.69508999 L18.5796834,7.69508999 C16.4946533,7.69508999 14.8044025,5.9726111 14.8044025,3.8478257 C14.8044025,1.75787285 16.4396895,0.0571442458 18.4774649,0.0019443164 L18.5796834,0.000561410049 L27.9474475,0 Z" id="路径" fill="#82B0FF"></path>
                                <path d="M3.78025588,16.9978256 C5.83110513,16.9978256 7.50001262,18.6642927 7.55417975,20.7409224 L7.55553678,20.8450899 L7.55553678,40.3044371 C4.50206287,39.6460189 1.84696886,37.8626975 0.00493655005,35.4072736 L0.00493655005,20.8450899 C0.00493655005,18.7203045 1.69522581,16.9978256 3.78025588,16.9978256 Z" id="路径" fill="url(#linearGradient-2)"></path>
                            </g>
                        </g>
                        <path d="M9.7290152,1.28242143 C10.4454401,1.28242143 11.0262172,1.87095619 11.0262172,2.59695061 L11.0262172,7.2156591 C11.0262172,9.55215587 12.1181372,11.7544063 13.9779014,13.1687946 C15.6965348,14.47585 17.7571619,15.2449845 19.9007761,15.3888974 L32.0013155,15.3890572 C32.7948861,15.3890572 33.4382022,16.0323733 33.4382022,16.8259439 L33.4382022,31.2256019 C33.4382022,32.0191726 32.7948861,32.6624887 32.0013155,32.6624887 L16.8975609,32.6624887 C16.1039903,32.6624887 15.4606742,32.0191726 15.4606742,31.2256019 L15.4613768,19.2917281 C15.1426481,17.4378898 14.1126318,15.7612576 12.5635604,14.6385632 C10.6115562,13.2238421 8.26286711,12.4612374 5.85210938,12.4593969 L1.29720203,12.4559195 C0.58077713,12.4559195 0,11.8673847 0,11.1413903 L0,2.59695061 C0,1.87095619 0.58077713,1.28242143 1.29720203,1.28242143 L9.7290152,1.28242143 Z" id="形状结合" fill="url(#linearGradient-3)"></path>
                    </g>
                </g>
            </g>
        </g>
    </g>
</svg>