<svg xmlns="http://www.w3.org/2000/svg" viewBox="0 0 512 512"><path fill="#183a9e" d="M0 0h512v512H0z"/><g fill="#fff"><path d="M390.8 229.58L226.6 63.67l-38.17 38.36 55.81 56.41-122.53 123.15 164.73 166.42 37.46-37.77-56.31-56.92 123.2-123.73zm-157.2 81.55a6.79 6.79 0 01-3.25 0 9.14 9.14 0 01-4.16-2.9l-22.18-22.41a9.57 9.57 0 01-2.87-4.2 5.64 5.64 0 010-3.4c.53-1.65 1.51-3.1 2.83-4.2l69.96-70.38a9.62 9.62 0 014.16-2.9c1.09-.36 2.28-.36 3.37 0a9.13 9.13 0 014.16 2.85L307.85 226c1.32 1.1 2.3 2.56 2.83 4.2.33 1.11.33 2.29 0 3.4a9.51 9.51 0 01-2.83 4.2l-69.96 70.43a9.74 9.74 0 01-4.3 2.9z"/><path d="M373.56 326.05a25.12 25.12 0 00-8.44-5.78 24.95 24.95 0 00-10.02-1.93c-3.43-.05-6.83.61-10 1.94a25.25 25.25 0 00-8.42 5.77c-2.46 2.42-4.41 5.32-5.71 8.53s-1.95 6.65-1.88 10.12a25.4 25.4 0 001.89 10.06 25.41 25.41 0 005.71 8.46 24.85 24.85 0 0018.42 7.65c3.43.07 6.84-.57 10.02-1.89s6.05-3.28 8.43-5.77a25.15 25.15 0 005.75-8.46 25.53 25.53 0 001.94-10.06c.05-3.47-.61-6.92-1.93-10.13a25.43 25.43 0 00-5.76-8.52zm1.82 27.15a20.8 20.8 0 01-4.78 7.18 20.92 20.92 0 01-7.02 4.82 20.64 20.64 0 01-8.35 1.61c-2.88.05-5.74-.5-8.41-1.61s-5.08-2.75-7.09-4.83a21.64 21.64 0 01-6.3-15.68l-.04-.26a21.41 21.41 0 016.43-15.33 20.9 20.9 0 017.03-4.89c2.65-1.12 5.51-1.68 8.38-1.64 2.87-.04 5.72.52 8.36 1.64s5.03 2.79 7.01 4.88a21.33 21.33 0 016.38 15.59c.04 2.91-.5 5.8-1.6 8.49z"/><path d="M364 343.71a8.22 8.22 0 002.05-5.22 8.3 8.3 0 00-.73-3.37 8.24 8.24 0 00-2.04-2.78 8.2 8.2 0 00-2.99-1.69 8.22 8.22 0 00-3.41-.31h-11.6v28.73h4.34v-12.48h4.73l6.99 12.48h4.86l-7.12-12.7a8.15 8.15 0 004.91-2.66zm-14.37-.8v-8.76h6.64c3.73 0 5.6 1.4 5.6 4.38s-1.87 4.38-5.6 4.38z"/></g></svg>