<svg id="图层_1" data-name="图层 1" xmlns="http://www.w3.org/2000/svg" viewBox="0 0 188 78"><defs><style>.cls-1,.cls-2{fill:#333;}.cls-1{fill-rule:evenodd;}.cls-3{fill:#23caff;}</style></defs><path class="cls-1" d="M79.63,104.62a1.54,1.54,0,0,0-1.55-1.55H39.39a1.54,1.54,0,0,0-1.54,1.55v69.71a1.54,1.54,0,0,0,1.54,1.54H78.08a1.54,1.54,0,0,0,1.55-1.54ZM64,137.16a1.54,1.54,0,0,0-1.54-1.55H49.83a1.54,1.54,0,0,0-1.54,1.55v21.57a1.54,1.54,0,0,0,1.54,1.54H62.42A1.54,1.54,0,0,0,64,158.73Z" transform="translate(-37.85 -102.51)"/><path class="cls-2" d="M119.26,114.45a1.54,1.54,0,0,0-1.54-1.54H99.92a1.54,1.54,0,0,0-1.55,1.54v7.31a1.55,1.55,0,0,1-1.54,1.55H86.39a1.54,1.54,0,0,0-1.54,1.54v12.51a1.55,1.55,0,0,0,1.54,1.55H96.83a1.54,1.54,0,0,1,1.54,1.54v17.71a1.55,1.55,0,0,1-1.54,1.55H86.39a1.54,1.54,0,0,0-1.54,1.54v12.51a1.55,1.55,0,0,0,1.54,1.55h43.92a1.55,1.55,0,0,0,1.54-1.55V161.25a1.54,1.54,0,0,0-1.54-1.54H120.8a1.55,1.55,0,0,1-1.54-1.55V140.45a1.54,1.54,0,0,1,1.54-1.54h9.51a1.55,1.55,0,0,0,1.54-1.55V124.85a1.54,1.54,0,0,0-1.54-1.54H120.8a1.55,1.55,0,0,1-1.54-1.55Z" transform="translate(-37.85 -102.51)"/><path class="cls-3" d="M142.29,124.85a1.54,1.54,0,0,1,1.54-1.54h39a1.54,1.54,0,0,1,1.46,2l-4.19,12.51a1.55,1.55,0,0,1-1.46,1.06H143.83a1.55,1.55,0,0,1-1.54-1.55Z" transform="translate(-37.85 -102.51)"/><path class="cls-1" d="M215.4,104.05a1.54,1.54,0,0,0-1.54-1.54h-70a1.54,1.54,0,0,0-1.54,1.54v12.51a1.55,1.55,0,0,0,1.54,1.55H198.2a1.54,1.54,0,0,1,1.54,1.54v48.91a1.55,1.55,0,0,1-1.54,1.55h-7.37a1.55,1.55,0,0,1-1.54-1.55V145.65a1.54,1.54,0,0,0-1.54-1.54H143.83a1.54,1.54,0,0,0-1.54,1.54v28.11a1.55,1.55,0,0,0,1.54,1.55h38.7a1.54,1.54,0,0,1,1.54,1.54V179a1.55,1.55,0,0,0,1.54,1.55h38.7a1.55,1.55,0,0,0,1.54-1.55V114.45a1.54,1.54,0,0,0-1.54-1.54H217a1.55,1.55,0,0,1-1.55-1.55Zm-62.66,52a1.54,1.54,0,0,1,1.54-1.54h7.36a1.54,1.54,0,0,1,1.54,1.54v7.31a1.54,1.54,0,0,1-1.54,1.54h-7.36a1.54,1.54,0,0,1-1.54-1.54Z" transform="translate(-37.85 -102.51)"/></svg>